<svg width="876" height="539" viewBox="0 0 876 539" fill="none" xmlns="http://www.w3.org/2000/svg">
<g clip-path="url(#clip0)">
<path opacity="0.1" d="M875.999 346.187C876.014 360.791 874.249 375.341 870.741 389.517C869.561 394.294 868.19 398.971 866.628 403.549C864.717 409.2 862.502 414.743 859.994 420.155C858.73 422.893 857.393 425.576 855.985 428.205C856.008 443.18 852.926 457.997 846.934 471.721C836.101 496.343 816.785 516.251 792.506 527.818C777.326 535.063 760.736 538.873 743.917 538.978H166.294C140.594 539.032 115.338 532.279 93.0941 519.403L92.7519 519.21C89.5836 517.355 86.4945 515.391 83.4848 513.317C76.7131 508.638 70.3511 503.391 64.4672 497.634C56.5035 489.849 49.4861 481.151 43.5605 471.721C29.6434 449.615 22.2709 424.018 22.2968 397.894C8.20278 373.157 -0.015625 343.524 -0.015625 311.681C-0.015625 271.505 13.0446 234.856 34.5017 207.113C38.9751 201.316 43.8751 195.863 49.1609 190.797C54.3763 185.784 59.982 181.194 65.925 177.07C70.6798 173.767 75.6491 170.785 80.7999 168.142C82.9493 167.049 85.1062 166.014 87.3003 165.055C89.2266 164.199 91.1752 163.403 93.1461 162.652C95.5112 161.754 97.9061 160.928 100.331 160.174C102.755 159.42 105.148 158.76 107.508 158.195C110.979 157.347 114.509 156.657 118.099 156.127C121.074 155.688 124.049 155.383 127.024 155.152C129.389 154.974 131.776 154.877 134.179 154.847H135.48C138.128 154.847 140.761 154.951 143.371 155.13C143.647 154.579 143.944 154.021 144.219 153.478C145.26 151.492 146.339 149.513 147.425 147.578C147.422 147.561 147.422 147.543 147.425 147.526C147.611 147.184 147.797 146.849 147.99 146.522C148.868 144.937 149.782 143.367 150.72 141.812C151.151 141.068 151.575 140.369 152.014 139.67C152.107 139.496 152.208 139.327 152.319 139.164C152.765 138.42 153.219 137.676 153.68 136.932C155.975 133.261 158.363 129.655 160.842 126.114L161.474 125.206C161.861 124.656 162.218 124.12 162.649 123.57C163.676 122.134 164.732 120.69 165.795 119.277C166.539 118.265 167.283 117.261 168.086 116.301C170.02 113.821 172.003 111.341 174.036 108.861C176.069 106.381 178.181 103.933 180.373 101.518C180.67 101.183 180.968 100.856 181.28 100.528L184.456 97.0612C184.612 96.8975 184.746 96.7487 184.895 96.5999C185.274 96.1907 185.638 95.7815 186.048 95.3872C187.751 93.5793 189.499 91.8086 191.254 90.0454C200.187 81.1453 209.703 72.8512 219.739 65.2183C220.133 64.9059 220.535 64.6083 220.929 64.3107C222.818 62.8896 224.737 61.4835 226.656 60.0997C237.211 52.5254 248.244 45.6416 259.686 39.4911C260.474 39.0373 261.278 38.6132 262.088 38.1965C272.346 32.7677 282.896 27.9095 293.69 23.6441C299.573 21.3154 305.59 19.128 311.644 17.1267C315.675 15.8024 319.721 14.545 323.819 13.3621C330.225 11.517 336.676 9.86284 343.172 8.39966C362.308 4.10448 381.775 1.45119 401.362 0.468696C407.312 0.166139 413.329 0.00990264 419.413 -1.72549e-05C448.769 -0.0388938 478.01 3.66121 506.431 11.0111C506.725 11.4553 507.127 11.8174 507.6 12.0634C508.072 12.3094 508.599 12.4312 509.131 12.4172H511.63C512.716 12.7148 513.794 13.0124 514.88 13.3249C520.944 15.0708 526.922 16.9779 532.812 19.0462L534.3 19.5819C548.838 24.7533 562.984 30.9694 576.626 38.1817C588.924 44.6674 600.765 51.9855 612.066 60.0848C613.806 61.3347 615.522 62.5945 617.213 63.8643C619.265 62.5499 621.353 61.2901 623.475 60.0848C631.67 55.4158 640.375 51.7037 649.417 49.0216C668.321 43.4255 688.324 42.6429 707.608 46.745C732.337 51.9902 754.724 65.01 772.804 83.528C780.166 91.1047 786.719 99.4277 792.357 108.362C792.767 109.002 793.176 109.65 793.57 110.304C798.416 118.212 802.581 126.518 806.02 135.131C806.147 135.451 806.273 135.749 806.385 136.061C809.56 144.127 812.121 152.421 814.045 160.873C814.134 161.305 814.239 161.729 814.328 162.161C816.128 170.34 817.351 178.636 817.987 186.988C817.987 187.285 817.987 187.59 818.047 187.903C818.359 192.223 818.518 196.588 818.523 200.997C818.523 204.94 818.389 208.853 818.143 212.737C818.143 213.161 818.084 213.6 818.047 214.039C817.98 215.163 817.883 216.271 817.786 217.402C823.467 221.985 828.783 227.003 833.688 232.408C835.854 234.774 837.952 237.229 839.98 239.774C846.157 247.518 851.586 255.831 856.193 264.601C868.77 288.349 875.999 316.286 875.999 346.187Z" fill="#D4AF37"/>
<path opacity="0.1" d="M791.957 525.065C791.957 530.147 774.456 534.908 743.918 539H166.294C140.595 539.055 115.339 532.301 93.0948 519.426L92.7527 519.232C101.529 516.033 117.371 513.05 138.932 510.356L139.899 510.237C149.568 509.054 160.374 507.931 172.185 506.867C172.482 506.867 172.787 506.822 173.085 506.785C182.456 505.952 192.425 505.171 202.991 504.442C203.326 504.442 203.653 504.382 203.987 504.367C208.063 504.075 212.223 503.797 216.468 503.534L218.104 503.43C249.006 501.51 284.134 499.978 322.228 498.966H322.273C327.608 498.817 333 498.686 338.449 498.572C344.509 498.428 350.642 498.301 356.85 498.192C361.587 498.088 366.385 498.014 371.197 497.939H371.308C393.018 497.612 415.45 497.448 438.387 497.448C495.105 497.448 548.714 498.482 596.217 500.342H596.351C603.655 500.625 610.825 500.937 617.816 501.257L623.766 501.54C631.654 501.917 639.34 502.321 646.822 502.753C734.807 507.76 791.957 515.892 791.957 525.065Z" fill="#D4AF37"/>
<g opacity="0.2">
<path opacity="0.2" d="M505.956 494.033C505.932 494.836 505.84 495.635 505.681 496.421C500.505 495.598 495.298 494.854 490.062 494.189C490.062 493.981 490.062 493.765 490.062 493.55C490.111 491.319 490.753 489.141 491.922 487.24C493.454 484.815 495.782 483.297 498.348 483.379C500.914 483.461 503.137 485.12 504.513 487.627C505.554 489.597 506.052 491.808 505.956 494.033V494.033Z" fill="#3F3D56"/>
<path opacity="0.2" d="M506.383 481.32C506.565 475.566 503.151 470.789 498.758 470.65C494.366 470.511 490.657 475.063 490.475 480.817C490.293 486.57 493.707 491.347 498.1 491.486C502.493 491.625 506.202 487.073 506.383 481.32Z" fill="#3F3D56"/>
<path opacity="0.2" d="M506.789 468.582C506.971 462.828 503.557 458.051 499.164 457.913C494.771 457.774 491.063 462.325 490.881 468.079C490.699 473.833 494.113 478.61 498.506 478.749C502.899 478.888 506.608 474.336 506.789 468.582Z" fill="#3F3D56"/>
<path opacity="0.2" d="M507.187 455.845C507.369 450.091 503.955 445.314 499.563 445.175C495.17 445.036 491.461 449.588 491.279 455.342C491.098 461.096 494.511 465.872 498.904 466.011C503.297 466.15 507.006 461.598 507.187 455.845Z" fill="#3F3D56"/>
<path opacity="0.2" d="M507.586 443.107C507.768 437.353 504.354 432.576 499.961 432.438C495.568 432.299 491.86 436.85 491.678 442.604C491.496 448.358 494.91 453.135 499.303 453.274C503.696 453.413 507.404 448.861 507.586 443.107Z" fill="#3F3D56"/>
<path opacity="0.2" d="M472.562 354.728C471.515 353.309 470.57 351.818 469.736 350.264L490.754 347.489L468.129 346.946C466.11 342.155 465.089 337.003 465.129 331.804C465.169 326.605 466.268 321.469 468.36 316.71L498.199 333.413L470.866 311.956C473.623 307.495 477.271 303.65 481.58 300.663C485.889 297.675 490.768 295.608 495.912 294.591C501.056 293.574 506.354 293.629 511.475 294.753C516.597 295.876 521.432 298.044 525.678 301.121C529.924 304.197 533.491 308.117 536.155 312.634C538.819 317.152 540.523 322.17 541.162 327.376C541.8 332.582 541.358 337.863 539.864 342.891C538.37 347.918 535.856 352.584 532.478 356.595C534.107 358.802 535.491 361.179 536.606 363.686L509.02 376.929L538.272 368.127C540.114 374.208 540.411 380.651 539.136 386.875C537.86 393.099 535.053 398.907 530.968 403.772C535.215 409.536 537.755 416.379 538.297 423.519C538.839 430.659 537.361 437.807 534.033 444.146C530.705 450.486 525.661 455.76 519.477 459.367C513.293 462.973 506.22 464.766 499.065 464.541C491.911 464.315 484.964 462.08 479.02 458.091C473.075 454.102 468.373 448.52 465.451 441.983C462.529 435.447 461.504 428.22 462.495 421.128C463.485 414.037 466.451 407.367 471.052 401.882C465.978 394.994 463.367 386.599 463.636 378.048C463.906 369.496 467.042 361.283 472.54 354.728H472.562Z" fill="#D4AF37"/>
<path opacity="0.1" d="M539.893 380.455C539.633 389.012 536.488 397.229 530.968 403.772C535.215 409.536 537.755 416.379 538.297 423.519C538.839 430.659 537.361 437.807 534.033 444.146C530.705 450.486 525.661 455.76 519.477 459.367C513.293 462.973 506.22 464.766 499.065 464.541C491.911 464.315 484.964 462.08 479.02 458.091C473.075 454.102 468.373 448.52 465.451 441.983C462.529 435.447 461.504 428.22 462.495 421.128C463.485 414.037 466.451 407.367 471.052 401.882C466.166 395.238 540.027 376.177 539.893 380.455Z" fill="black"/>
</g>
<g opacity="0.2">
<path opacity="0.2" d="M392.907 494.033C392.883 494.836 392.791 495.635 392.631 496.421C387.455 495.598 382.249 494.854 377.013 494.189C377.013 493.981 377.013 493.765 377.013 493.55C377.061 491.319 377.703 489.141 378.872 487.24C380.404 484.815 382.732 483.297 385.298 483.379C387.864 483.461 390.088 485.12 391.464 487.627C392.504 489.597 393.002 491.808 392.907 494.033V494.033Z" fill="#3F3D56"/>
<path opacity="0.2" d="M393.326 481.323C393.508 475.569 390.094 470.792 385.701 470.653C381.308 470.514 377.599 475.066 377.417 480.82C377.236 486.574 380.65 491.351 385.043 491.489C389.435 491.628 393.144 487.076 393.326 481.323Z" fill="#3F3D56"/>
<path opacity="0.2" d="M393.731 468.585C393.913 462.831 390.499 458.054 386.106 457.916C381.714 457.777 378.005 462.329 377.823 468.082C377.641 473.836 381.055 478.613 385.448 478.752C389.841 478.891 393.55 474.339 393.731 468.585Z" fill="#3F3D56"/>
<path opacity="0.2" d="M394.13 455.848C394.312 450.094 390.898 445.317 386.505 445.178C382.112 445.039 378.403 449.591 378.222 455.345C378.04 461.099 381.454 465.876 385.847 466.014C390.24 466.153 393.948 461.602 394.13 455.848Z" fill="#3F3D56"/>
<path opacity="0.2" d="M394.528 443.11C394.71 437.356 391.296 432.579 386.903 432.441C382.51 432.302 378.802 436.854 378.62 442.607C378.438 448.361 381.852 453.138 386.245 453.277C390.638 453.416 394.346 448.864 394.528 443.11Z" fill="#3F3D56"/>
<path opacity="0.2" d="M359.512 354.728C358.465 353.309 357.521 351.818 356.686 350.264L377.704 347.489L355.08 346.946C353.061 342.155 352.04 337.003 352.079 331.804C352.119 326.605 353.218 321.469 355.31 316.71L385.149 333.413L357.817 311.956C360.574 307.495 364.221 303.65 368.531 300.663C372.84 297.675 377.719 295.608 382.862 294.591C388.006 293.574 393.304 293.629 398.426 294.753C403.547 295.876 408.382 298.044 412.628 301.121C416.875 304.197 420.441 308.117 423.106 312.634C425.77 317.152 427.474 322.17 428.112 327.376C428.75 332.582 428.308 337.863 426.814 342.891C425.32 347.918 422.806 352.584 419.429 356.595C421.058 358.802 422.442 361.179 423.556 363.686L395.971 376.929L425.222 368.127C427.065 374.208 427.361 380.651 426.086 386.875C424.811 393.099 422.004 398.907 417.919 403.772C422.166 409.536 424.705 416.379 425.247 423.519C425.789 430.659 424.312 437.807 420.984 444.146C417.655 450.486 412.611 455.76 406.427 459.367C400.244 462.973 393.17 464.766 386.016 464.541C378.861 464.315 371.914 462.08 365.97 458.091C360.026 454.102 355.324 448.52 352.401 441.983C349.479 435.447 348.455 428.22 349.445 421.128C350.436 414.037 353.401 407.367 358.003 401.882C352.929 394.994 350.317 386.599 350.587 378.048C350.857 369.496 353.992 361.283 359.49 354.728H359.512Z" fill="#D4AF37"/>
<path opacity="0.1" d="M426.844 380.455C426.583 389.012 423.438 397.229 417.919 403.772C422.166 409.536 424.705 416.379 425.247 423.519C425.789 430.659 424.312 437.807 420.984 444.146C417.655 450.486 412.611 455.76 406.427 459.367C400.244 462.973 393.17 464.766 386.016 464.541C378.861 464.315 371.915 462.08 365.97 458.091C360.026 454.102 355.324 448.52 352.401 441.983C349.479 435.447 348.455 428.22 349.445 421.128C350.436 414.037 353.401 407.367 358.003 401.882C353.116 395.238 426.978 376.177 426.844 380.455Z" fill="black"/>
</g>
<g opacity="0.2">
<path opacity="0.2" d="M701.71 502.172C701.654 503.693 701.472 505.206 701.167 506.696C691.201 505.104 681.163 503.68 671.053 502.425C671.053 502.024 671.053 501.614 671.053 501.198C671.147 496.901 672.385 492.708 674.638 489.048C677.613 484.384 682.075 481.46 687.006 481.608C691.937 481.757 696.229 484.964 698.906 489.792C700.925 493.596 701.893 497.87 701.71 502.172V502.172Z" fill="#3F3D56"/>
<path opacity="0.2" d="M702.52 477.678C702.87 466.597 696.294 457.398 687.832 457.13C679.371 456.863 672.228 465.629 671.878 476.709C671.528 487.789 678.103 496.989 686.565 497.256C695.026 497.524 702.17 488.758 702.52 477.678Z" fill="#3F3D56"/>
<path opacity="0.2" d="M703.293 453.155C703.643 442.075 697.067 432.875 688.605 432.608C680.144 432.341 673.001 441.106 672.651 452.187C672.301 463.267 678.876 472.466 687.338 472.734C695.799 473.001 702.943 464.236 703.293 453.155Z" fill="#3F3D56"/>
<path opacity="0.2" d="M704.073 428.633C704.423 417.553 697.847 408.353 689.386 408.086C680.924 407.818 673.781 416.584 673.431 427.665C673.081 438.745 679.657 447.944 688.118 448.212C696.58 448.479 703.723 439.714 704.073 428.633Z" fill="#3F3D56"/>
<path opacity="0.2" d="M703.974 402.995C704.306 391.909 697.713 382.716 689.247 382.462C680.782 382.208 673.649 390.989 673.317 402.075C672.984 413.161 679.578 422.354 688.043 422.608C696.509 422.862 703.641 414.081 703.974 402.995Z" fill="#3F3D56"/>
<path opacity="0.2" d="M637.413 233.993C635.407 231.262 633.59 228.396 631.977 225.415L672.436 220.073L628.89 219.024C625 209.802 623.032 199.883 623.107 189.874C623.181 179.866 625.296 169.977 629.321 160.814L686.776 192.962L634.163 151.655C639.483 143.088 646.51 135.708 654.806 129.975C663.102 124.243 672.489 120.282 682.382 118.338C692.276 116.394 702.464 116.509 712.311 118.676C722.158 120.843 731.453 125.016 739.618 130.934C747.782 136.852 754.64 144.389 759.765 153.075C764.89 161.761 768.172 171.409 769.405 181.42C770.639 191.43 769.799 201.587 766.936 211.258C764.074 220.929 759.251 229.906 752.768 237.631C755.902 241.883 758.567 246.46 760.719 251.283L707.608 276.795L763.917 259.832C767.466 271.523 768.044 283.915 765.598 295.886C763.153 307.857 757.762 319.029 749.913 328.391C758.087 339.487 762.974 352.661 764.017 366.405C765.059 380.15 762.214 393.91 755.806 406.113C749.399 418.317 739.688 428.47 727.784 435.412C715.88 442.355 702.263 445.806 688.491 445.371C674.718 444.937 661.346 440.635 649.902 432.956C638.459 425.277 629.407 414.532 623.781 401.95C618.155 389.367 616.182 375.455 618.087 361.803C619.993 348.152 625.701 335.312 634.557 324.753C624.795 311.492 619.77 295.335 620.287 278.875C620.805 262.415 626.837 246.606 637.413 233.986V233.993Z" fill="#D4AF37"/>
<path opacity="0.1" d="M767.049 283.513C766.561 299.977 760.533 315.794 749.942 328.406C758.117 339.502 763.004 352.676 764.047 366.42C765.089 380.165 762.244 393.925 755.836 406.128C749.429 418.331 739.718 428.485 727.814 435.427C715.91 442.369 702.293 445.821 688.521 445.386C674.748 444.952 661.376 440.649 649.932 432.971C638.489 425.292 629.437 414.547 623.811 401.964C618.184 389.382 616.211 375.469 618.117 361.818C620.023 348.166 625.73 335.327 634.587 324.767C625.112 311.963 767.309 275.277 767.049 283.513Z" fill="black"/>
</g>
<path d="M117.378 503.482L125.18 503.46H136.18L150.088 277.45L287.823 47.5337L281.836 41.1056V24.827L132.878 272.123L117.378 503.482Z" fill="#F1C0C0"/>
<path opacity="0.1" d="M126.013 503.46H136.18L150.088 277.45L287.823 47.5337L281.836 41.1056L139.765 274.005L126.013 503.46Z" fill="black"/>
<path d="M94.3889 505.364L451.276 532.683L451.581 532.706L796.969 511.457L797.23 511.443V496.853L416.654 489.867L99.1415 489.562H96.821L96.5681 491.199L94.3889 505.364Z" fill="#F1C0C0"/>
<path opacity="0.1" d="M94.3889 505.364L451.276 532.683L451.581 532.706L796.969 511.457L797.23 511.175V497.158H796.925L451.276 508.705L99.1415 489.562H99.0894L98.4646 489.971L96.5681 491.199L94.3889 505.364Z" fill="black"/>
<path opacity="0.1" d="M94.3889 505.364L451.276 532.684V508.705L98.4646 489.971L96.5681 491.199L94.3889 505.364Z" fill="black"/>
<path d="M281.791 40.8005L439.131 209.731L434.266 506.882L447.632 508.496L447.855 508.526H461.22L462.819 222.491L757.439 320.936L762.408 496.22L773.162 497.426L776.806 497.835L768.372 308.779L460.387 200.617L291.512 24.9981H281.791V40.8005Z" fill="#F1C0C0"/>
<path opacity="0.1" d="M461.607 217.023L462.819 222.491L757.439 320.936L762.408 496.22L773.162 497.426L764.728 317.29L461.607 217.023Z" fill="black"/>
<path opacity="0.1" d="M281.791 40.8005L439.13 209.731L434.266 506.882L447.632 508.496L451.276 200.007L281.791 24.9981V40.8005Z" fill="black"/>
<path d="M462.179 336.277L570.238 357.563L570.275 357.57L759.537 394.866L768.201 391.392L768.172 390.782L767.606 378.692L462.291 316.978L462.179 336.277Z" fill="#F1C0C0"/>
<path opacity="0.1" d="M570.276 357.57L759.537 394.866L768.201 391.392L768.172 390.782L570.276 357.57Z" fill="black"/>
<path d="M577.512 260.814L580.435 421.769L581.945 504.345L595.25 503.898L603.625 503.616L601.022 263.143L595.25 261.223L593.986 260.814H577.512Z" fill="#F1C0C0"/>
<path opacity="0.1" d="M577.631 260.777V260.814L580.435 421.769L581.945 504.345L595.25 503.898V260.777H577.631Z" fill="black"/>
<path d="M369.092 301.919C369.872 302.344 370.619 302.829 371.323 303.37C372.156 304.1 372.905 304.921 373.554 305.818C376.745 309.947 379.69 314.746 379.378 319.954C379.385 320.712 379.241 321.463 378.957 322.165C378.672 322.868 378.252 323.507 377.719 324.046C376.403 325.169 374.514 325.221 372.788 325.221C370.914 325.221 368.943 325.221 367.322 324.254C365.7 323.287 364.347 321.405 362.428 321.449C362.157 321.494 361.881 321.494 361.61 321.449C360.948 321.234 360.814 320.363 360.383 319.812C359.639 318.823 358.07 319.068 356.902 319.5C355.734 319.932 354.44 320.579 353.287 320.08C352.618 319.727 352.071 319.18 351.718 318.51C348.959 314.047 348.371 308.682 347.85 303.497C347.531 300.342 345.091 289.584 351.822 292.032C354.797 293.103 357.579 295.246 360.286 296.816L369.092 301.919Z" fill="#3F3D56"/>
<path d="M362.443 302.983C363.044 303.416 363.773 303.635 364.513 303.605C365.253 303.576 365.961 303.299 366.526 302.82C367.633 301.819 368.339 300.449 368.512 298.966C369.256 298.735 369.635 299.71 370.111 300.305C370.944 301.317 372.64 301.302 373.398 302.381C373.926 303.125 373.807 304.159 374.179 305C374.663 306.086 375.86 306.651 376.678 307.529C377.451 308.488 378.009 309.602 378.314 310.795L379.534 314.456C380.118 315.978 380.493 317.572 380.65 319.195C380.727 320.006 380.641 320.825 380.399 321.603C380.156 322.38 379.761 323.102 379.237 323.726C377.6 325.489 374.915 325.675 372.543 325.623C371.751 325.64 370.96 325.547 370.193 325.348C368.088 324.693 366.742 322.573 366.184 320.437C365.626 318.302 365.686 316.063 365.358 313.875C365.005 311.727 364.38 309.632 363.499 307.641C362.844 306.093 361.045 303.787 361.074 302.143C361.61 302.143 361.997 302.634 362.443 302.983Z" fill="#3F3D56"/>
<path d="M365.113 295.447C364.765 294.39 364.562 293.292 364.51 292.181C364.51 289.949 365.529 287.851 366.556 285.857L358.055 287.01C357.028 287.151 355.883 287.36 355.303 288.215C355.082 288.639 354.967 289.11 354.967 289.588C354.967 290.066 355.082 290.537 355.303 290.96C355.729 291.809 356.068 292.699 356.314 293.617C356.334 294.419 356.426 295.219 356.589 296.005C356.854 296.582 357.225 297.105 357.683 297.545C360.115 300.238 361.937 303.415 363.752 306.562C363.7 306.473 368.876 302.463 368.668 301.153C368.549 300.409 367.054 299.516 366.578 298.802C365.92 297.765 365.426 296.634 365.113 295.447V295.447Z" fill="#BE6F72"/>
<path d="M438 266.379V273.707L312.552 298.185L306.044 302.128H283.591V297.999L406.844 268.209L438 266.379Z" fill="#F1C0C0"/>
<path opacity="0.1" d="M438 273.707L312.552 298.185L306.044 302.128H283.591L407.759 275.545L438 273.707Z" fill="black"/>
<path d="M337.282 474.414C335.884 472.721 333.955 471.551 331.807 471.094C329.66 470.637 327.422 470.921 325.456 471.899C325.036 472.098 324.665 472.387 324.37 472.748C323.627 473.789 324.103 475.225 324.17 476.512C324.341 479.652 321.842 482.204 319.596 484.398C318.391 485.574 317.163 486.831 316.621 488.431C316.078 490.03 316.479 492.062 317.937 492.895C318.573 493.214 319.265 493.406 319.975 493.46C322.352 493.924 324.79 493.992 327.189 493.661C329.562 493.207 331.89 491.861 332.916 489.673C333.114 489.08 333.442 488.539 333.875 488.089C335.184 487.054 337.193 488.267 338.68 487.531C339.907 486.921 339.959 485.961 339.974 484.696C340.019 481.199 339.498 477.241 337.282 474.414Z" fill="#D4AF37"/>
<path d="M355.132 474.28C356.046 476.691 356.173 479.317 356.292 481.891C356.359 483.379 356.403 484.971 355.6 486.229C354.797 487.486 353.228 488.148 351.725 488.461C348.624 489.1 345.032 488.498 343.031 486.035C341.499 484.153 341.179 481.571 341.462 479.131C341.7 477.13 342.205 474.786 340.77 473.365C340.398 472.986 339.915 472.718 339.572 472.309C338.829 471.401 338.948 470.032 339.349 468.916C339.872 467.849 340.265 466.722 340.517 465.561C340.577 465.01 350.587 465.947 351.51 466.401C352.767 467.019 352.573 468.053 352.952 469.303C353.481 471.044 354.492 472.614 355.132 474.28Z" fill="#D4AF37"/>
<path d="M356.969 367.398C358.932 368.67 359.691 371.17 359.996 373.492C360.836 379.853 359.364 386.281 359.252 392.701C359.148 401.696 361.751 410.855 359.527 419.567C358.196 424.775 359.327 430.727 358.077 435.987C357.705 437.549 357.021 439.022 356.664 440.585C355.92 443.97 356.701 447.511 357.75 450.822C358.085 451.714 358.297 452.648 358.382 453.597C358.332 455.059 357.961 456.491 357.296 457.793L352.834 468.351C352.335 469.533 350.372 469.727 349.115 469.883C346.75 470.166 344.109 470.367 342.228 468.901C340.346 467.435 339.892 464.98 339.602 462.689C339.046 458.29 338.797 453.857 338.859 449.423C338.94 448.266 338.837 447.103 338.554 445.979C338.145 444.706 337.245 443.605 336.999 442.259C336.687 440.518 337.572 438.807 337.899 437.051C338.124 435.447 338.098 433.818 337.825 432.222C337.535 429.842 337.2 427.461 336.821 425.095C336.285 421.784 337.051 418.518 337.564 415.2C338.048 412.082 337.431 408.906 336.821 405.811C336.873 408.323 336.56 410.829 335.891 413.25C335.497 414.433 334.932 415.564 334.589 416.77C333.065 422.178 336.315 427.855 335.854 433.457C335.638 436.076 334.612 438.665 334.902 441.247C335.103 443.137 335.98 444.87 336.583 446.671C337.185 448.471 337.498 450.532 336.583 452.213C334.166 456.781 335.973 462.994 338.137 467.681C338.576 468.512 338.959 469.372 339.282 470.255C339.922 472.368 339.387 474.637 339.558 476.839C338.935 476.941 338.297 476.9 337.692 476.718C337.088 476.536 336.533 476.219 336.07 475.79C335.742 475.448 335.475 475.046 335.155 474.689C334.261 473.837 333.203 473.177 332.046 472.748C331.366 472.367 330.592 472.189 329.815 472.234C328.997 472.463 328.262 472.919 327.695 473.551C326.959 474.198 326.179 474.792 325.36 475.329C325.011 475.597 324.603 475.779 324.17 475.857C323.952 475.891 323.729 475.855 323.533 475.755C323.337 475.655 323.177 475.496 323.076 475.299C323.03 475.175 323.002 475.045 322.994 474.913C322.718 472.666 322.572 470.406 322.556 468.142C322.556 464.251 317.9 461.573 317.312 457.726C316.844 454.624 317.714 451.462 317.424 448.337C317.282 446.73 316.836 445.153 316.866 443.546C316.866 442.504 317.104 441.485 317.186 440.451C317.254 439.303 317.237 438.151 317.134 437.006L316.903 433.413C316.68 429.864 316.435 426.241 315.036 422.997C313.378 419.209 312.397 415.16 312.136 411.033C311.987 408.429 312.084 405.825 311.786 403.214C311.518 400.856 310.923 398.512 311.094 396.146C311.236 394.316 311.838 392.545 311.98 390.715C312.27 387.196 310.931 383.773 309.882 380.403C308.833 377.033 308.06 373.298 309.436 370.047C309.633 369.513 309.96 369.037 310.388 368.663C310.915 368.314 311.516 368.09 312.143 368.008C324.904 365.327 337.984 364.492 350.982 365.531C353.101 365.651 355.157 366.292 356.969 367.398Z" fill="#3F3D56"/>
<path d="M314.746 288.379C321.327 288.379 326.661 283.043 326.661 276.46C326.661 269.878 321.327 264.541 314.746 264.541C308.166 264.541 302.831 269.878 302.831 276.46C302.831 283.043 308.166 288.379 314.746 288.379Z" fill="#BE6F72"/>
<path d="M312.441 291.347C312.612 292.029 312.612 292.742 312.441 293.423C312.253 293.899 311.989 294.341 311.66 294.733C310.506 296.221 309.23 297.609 307.844 298.884C308.55 300.461 309.821 301.717 311.407 302.403C312.981 303.073 314.632 303.546 316.323 303.809C317.167 304.031 318.045 304.092 318.911 303.988C319.71 303.787 320.465 303.444 321.142 302.976L327.762 299.01C328.76 298.469 329.685 297.802 330.514 297.024C331.728 295.776 332.415 294.108 332.432 292.367C332.463 292.055 332.379 291.742 332.194 291.489C331.941 291.268 331.622 291.135 331.287 291.109C328.959 290.596 327.122 288.706 326.081 286.563C325.14 284.367 324.53 282.043 324.274 279.667L317.215 283.387C316.167 283.945 315.125 284.503 314.04 284.986C313.348 285.299 311.95 285.559 311.459 286.191C310.522 287.36 312.195 289.941 312.441 291.347Z" fill="#BE6F72"/>
<path d="M307.889 296.719C306.884 297.543 306.099 298.604 305.606 299.807C305.144 301.295 305.606 302.864 306.022 304.337C307.974 310.616 309.466 317.029 310.485 323.525C311.109 327.989 311.34 332.52 311.645 337.036C312.27 346.247 313.177 360.933 314.389 370.084C318.852 370.285 323.203 368.983 327.628 368.507C335.898 367.629 344.414 369.638 352.514 367.763C350.55 360.003 348.587 346.752 346.623 339C345.754 335.946 345.152 332.822 344.823 329.663C344.652 327.394 344.757 325.117 344.786 322.833C344.853 318.369 344.608 313.905 344.362 309.441C344.08 304.233 343.797 299.025 342.562 293.929C342.476 293.28 342.172 292.679 341.7 292.225C340.956 291.682 339.989 291.876 339.104 291.995C336.394 292.339 333.651 291.689 331.384 290.164C330.402 289.495 329.086 288.676 328.171 289.42C327.781 289.869 327.523 290.418 327.427 291.005C327.022 292.058 326.398 293.012 325.595 293.803C324.792 294.595 323.829 295.206 322.771 295.596C320.652 296.363 318.432 296.819 316.182 296.95C315.493 297.097 314.775 297.016 314.136 296.719C313.08 296.072 313.006 293.743 311.675 293.587C310.507 293.453 308.677 295.968 307.889 296.719Z" fill="#3F3D56"/>
<path d="M325.486 314.887C322.741 312.261 321.537 308.452 319.536 305.215C318.174 303.039 316.433 301.124 314.397 299.561C313.373 298.885 312.434 298.088 311.6 297.188C310.894 296.317 310.358 295.157 309.287 294.822C308.845 294.725 308.385 294.738 307.949 294.859C307.512 294.979 307.111 295.204 306.781 295.514C306.125 296.139 305.504 296.799 304.921 297.493C301.768 300.759 296.227 301.213 293.728 304.992C293.054 305.793 292.595 306.754 292.397 307.782C291.677 313.283 293.099 318.85 296.368 323.332C297.001 324.37 297.973 325.159 299.12 325.564C298.965 326.951 299.148 328.355 299.656 329.655C301.033 334.364 302.725 338.975 304.72 343.457C304.243 345.21 303.91 346.999 303.724 348.806C303.203 353.352 303.687 357.964 303.196 362.518C302.794 366.238 301.708 369.861 301.671 373.588C301.671 374.183 301.723 374.89 302.236 375.195C302.509 375.336 302.815 375.4 303.121 375.381L312.27 375.657C317.58 375.813 322.942 375.969 328.171 374.987C328.867 374.884 329.542 374.67 330.172 374.355C331.942 373.365 332.529 371.133 332.812 369.147C333.181 366.57 333.328 363.966 333.251 361.364C334.359 364.869 335.675 368.492 339.022 370.01C340.792 370.813 342.815 370.754 344.756 370.702C348.94 370.515 353.11 370.085 357.244 369.414C357.499 369.446 357.757 369.418 357.999 369.331C358.241 369.245 358.459 369.103 358.636 368.917C358.813 368.731 358.945 368.507 359.019 368.261C359.094 368.015 359.11 367.755 359.066 367.502L359.111 363.44C359.2 355.189 357.155 347.303 356.359 339.089C356.106 336.5 356.128 333.881 355.496 331.344C355.236 330.28 354.857 329.239 354.626 328.167C354.427 327.119 354.303 326.057 354.254 324.991L353.674 316.807C353.399 313.02 353.005 309.367 352.715 305.587C352.555 301.907 352.022 298.253 351.123 294.68C350.476 292.448 349.13 289.919 346.802 289.644C345.56 289.502 344.355 290.045 343.172 290.425C340.266 291.34 337.146 291.327 334.247 290.388C333.352 290.034 332.418 289.784 331.466 289.644C330.986 289.578 330.498 289.642 330.051 289.827C329.604 290.013 329.214 290.314 328.922 290.7C328.633 291.281 328.498 291.927 328.528 292.575C328.178 300.007 327.531 307.663 325.486 314.887Z" fill="#D4AF37"/>
<path d="M313.519 315.11C310.09 311.495 306.573 307.812 302.155 305.513C300.414 304.605 298.436 303.921 296.51 304.263C294.583 304.605 292.791 306.279 292.88 308.236C292.94 309.449 293.676 310.52 293.907 311.71C294.174 313.05 293.788 314.478 294.204 315.773C294.542 316.626 295.048 317.402 295.692 318.057L300.957 324.299C303.188 326.903 305.42 329.544 308.291 331.344C311.161 333.145 314.88 333.986 318.034 332.706C320.277 331.663 322.143 329.95 323.374 327.803C324.683 325.72 325.605 323.443 326.832 321.293C328.742 317.857 331.263 314.799 334.27 312.268C332.723 311.867 330.781 311.301 329.807 310.036C329.53 309.634 329.293 309.206 329.101 308.757L327.896 306.153C327.486 306.131 327.076 306.195 326.692 306.34C326.308 306.484 325.958 306.707 325.664 306.994C325.148 307.591 324.594 308.155 324.006 308.682C322.957 309.471 321.537 309.687 320.585 310.587C320.216 310.973 319.883 311.392 319.588 311.837C318.868 312.784 317.954 313.565 316.907 314.13C315.861 314.695 314.705 315.029 313.519 315.11V315.11Z" fill="#3F3D56"/>
<path d="M334.545 299.554C337.126 294.844 337.007 289.197 337.743 283.878C337.823 282.469 338.317 281.115 339.163 279.987C340.651 278.305 343.276 278.283 345.523 278.499C346.184 278.573 347.01 278.885 346.973 279.548C346.921 279.785 346.805 280.003 346.638 280.18C344.461 282.991 343.181 286.392 342.964 289.941C344.132 290.752 345.939 289.086 347.062 289.941C347.806 290.566 347.464 291.801 347.017 292.694C345.981 294.762 344.913 296.816 343.812 298.854C342.933 300.651 341.787 302.304 340.413 303.757C339.468 304.665 338.36 305.379 337.401 306.272C335.17 308.362 333.823 311.316 331.518 313.355C331.323 313.566 331.059 313.7 330.774 313.734C330.481 313.713 330.204 313.589 329.993 313.384C328.841 312.447 327.886 311.292 327.182 309.984C326.304 308.362 326.438 307.886 327.821 306.741C330.41 304.695 332.931 302.5 334.545 299.554Z" fill="#BE6F72"/>
<path d="M309.205 311.911C309.652 312.187 310.202 312.499 310.693 312.268C310.893 312.147 311.064 311.982 311.191 311.785C312.041 310.65 312.751 309.416 313.303 308.109C313.399 307.925 313.452 307.722 313.46 307.514C313.46 307.038 313.036 306.688 312.642 306.413C310.529 305.067 308.258 303.987 305.881 303.199C303.917 302.455 301.865 301.808 299.782 301.994C299 302.046 298.236 302.257 297.537 302.612C296.838 302.968 296.218 303.461 295.714 304.062C294.226 305.974 296.718 306.555 298.28 307.246C301.894 308.891 305.806 309.843 309.205 311.911Z" fill="#D4AF37"/>
<path opacity="0.1" d="M306.863 324.559C306.837 324.729 306.853 324.902 306.907 325.065C306.961 325.228 307.053 325.376 307.175 325.497C307.391 324.44 307.108 323.324 307.331 322.26C307.658 320.661 309.213 319.455 309.347 317.848C306.498 317.29 306.885 322.833 306.863 324.559Z" fill="black"/>
<path opacity="0.2" d="M438 266.379V273.707L407.759 275.545L406.844 268.209L438 266.379Z" fill="black"/>
<path d="M304.021 278.231C305.911 276.691 304.817 273.462 306.097 271.393C306.84 270.263 308.097 269.667 309.332 269.161C310.822 268.464 312.418 268.021 314.055 267.852C314.874 267.773 315.701 267.88 316.473 268.165C317.246 268.45 317.944 268.905 318.517 269.496C319 270.047 319.328 270.716 319.781 271.289C320.343 271.958 321.076 272.461 321.901 272.747C322.725 273.032 323.612 273.089 324.467 272.911C325.456 272.688 326.483 271.937 326.416 270.925C326.304 270.309 325.99 269.749 325.523 269.333L323.396 266.974C320.979 264.296 318.294 261.454 314.746 260.784C312.277 260.315 309.748 260.978 307.368 261.774C306.409 262.094 305.33 262.57 305.063 263.544C304.884 264.214 305.152 264.943 304.996 265.62C304.691 266.967 302.965 267.421 302.162 268.551C301.359 269.682 301.604 271.021 301.374 272.271C301.143 273.521 300.474 274.741 300.392 276.036C300.34 276.817 300.734 278.268 301.612 278.551C302.489 278.833 303.479 277.301 304.021 278.231Z" fill="#3F3D56"/>
<path d="M325.694 269.853C325.067 266.58 323.715 263.489 321.738 260.806C319.979 258.3 317.533 256.357 314.694 255.212C313.275 254.657 311.749 254.431 310.231 254.551C308.712 254.671 307.24 255.133 305.926 255.904C303.974 257.297 302.456 259.213 301.545 261.431C299.619 265.583 298.905 270.657 301.143 274.645C302.036 273.558 303.568 274.049 304.921 273.655C306.617 273.172 308.053 272.041 309.667 271.334C314.538 269.184 320.488 270.925 325.694 269.853Z" fill="#FED253"/>
<path opacity="0.1" d="M302.281 269.623C302.11 268.284 301.998 266.729 302.95 265.776C302.998 265.718 303.058 265.671 303.126 265.64C303.195 265.609 303.27 265.595 303.345 265.598C303.411 265.619 303.472 265.654 303.525 265.7C303.577 265.746 303.62 265.803 303.65 265.866C304.199 266.733 304.667 267.65 305.048 268.603C304.493 268.476 303.914 268.517 303.383 268.723C302.853 268.928 302.396 269.289 302.073 269.757" fill="black"/>
<path opacity="0.1" d="M319.662 265.843L319.395 263.187C319.351 262.968 319.37 262.742 319.447 262.533C319.559 262.357 319.732 262.23 319.932 262.175C320.133 262.12 320.347 262.141 320.533 262.235C320.899 262.438 321.2 262.739 321.403 263.105C322.022 264.056 322.536 265.071 322.935 266.133C321.737 265.903 320.505 265.918 319.313 266.178" fill="black"/>
<path opacity="0.1" d="M326.319 373.64V379.711L321.195 380.054H294.241V373.64H326.319Z" fill="black"/>
<path d="M326.319 373.64V380.054H294.241L209.023 273.268V268.224H226.887L326.319 373.64Z" fill="#F1C0C0"/>
<path opacity="0.1" d="M326.319 373.64V380.054H294.241L209.023 273.268V268.224H226.887L326.319 373.64Z" fill="black"/>
<path opacity="0.1" d="M326.319 373.64V380.054H294.241L209.023 273.268V268.224L294.702 373.64H326.319Z" fill="black"/>
<path d="M220.194 480.671C220.25 480.973 220.243 481.283 220.174 481.582C220.105 481.881 219.975 482.163 219.792 482.409C219.609 482.656 219.377 482.862 219.111 483.015C218.845 483.167 218.55 483.264 218.245 483.297C216.177 483.997 213.983 484.689 212.518 486.273C211.053 487.858 210.763 490.797 212.518 492.084C213.415 492.625 214.446 492.906 215.493 492.895C218.862 493.126 222.373 493.081 225.43 491.652C227.616 490.641 229.676 488.915 232.079 489.071C233.321 489.145 234.645 489.725 235.753 489.16C236.861 488.595 237.173 487.017 237.181 485.7C237.209 482.951 236.795 480.216 235.954 477.598C235.842 477.241 231.112 476.966 230.547 476.854L224.812 476.11C223.726 475.969 221.384 475.151 220.528 476.058C219.673 476.966 220.194 479.592 220.194 480.671Z" fill="#D4AF37"/>
<path d="M254.414 462.101C254.656 463.441 255.051 464.749 255.589 465.999C256.385 468.023 257.403 470.173 259.352 471.155C261.122 472.041 263.294 471.721 265.094 470.88C265.845 470.569 266.503 470.069 267.005 469.429C267.586 468.417 267.845 467.252 267.749 466.089C267.749 463.21 267.578 460.234 266.261 457.674C265.131 455.442 263.16 453.523 263.13 451.053L256.355 452.362C255.992 452.397 255.647 452.534 255.358 452.756C255.143 452.983 254.994 453.263 254.927 453.567C254.203 456.352 254.029 459.25 254.414 462.101V462.101Z" fill="#D4AF37"/>
<path d="M173.501 391.422C173.219 393.817 173.338 396.384 174.587 398.452C175.837 400.521 178.469 401.89 180.745 401.064C180.862 401.034 180.971 400.981 181.067 400.908C181.163 400.835 181.243 400.744 181.303 400.64C181.364 400.388 181.329 400.123 181.206 399.896C180.202 397.214 180.284 394.245 181.437 391.623C181.586 391.28 181.906 390.879 182.255 391.013C182.401 391.087 182.519 391.207 182.59 391.355C182.95 391.978 183.13 392.689 183.11 393.408C183.005 394.06 182.985 394.723 183.051 395.38C183.192 396.02 183.876 396.622 184.471 396.347C184.643 396.241 184.792 396.102 184.909 395.937C185.025 395.772 185.106 395.585 185.148 395.387C186.807 390.588 186.056 385.343 185.297 380.321C185.303 380.206 185.284 380.091 185.241 379.984C185.198 379.876 185.132 379.78 185.048 379.701C184.963 379.623 184.862 379.563 184.753 379.528C184.643 379.492 184.527 379.481 184.412 379.496C180.901 379.146 178.983 378.305 176.975 381.571C175.249 384.324 173.501 388.111 173.501 391.422Z" fill="#D4AF37"/>
<path d="M214.541 379.213C213.5 383.543 212.451 387.925 212.384 392.374C212.403 395.145 212.611 397.912 213.009 400.655L213.79 407.098C214.058 409.27 214.318 411.435 214.697 413.585C214.939 414.693 215.071 415.822 215.092 416.956C215.019 418.073 214.842 419.182 214.564 420.266C214.096 422.545 213.835 424.86 213.783 427.185C213.701 430.905 214.162 434.625 214.452 438.345C215.031 445.758 214.944 453.208 214.192 460.606C213.891 462.602 214.325 464.64 215.411 466.342C215.852 466.878 216.216 467.474 216.49 468.112C217.048 469.816 215.746 471.52 215.411 473.268C215.197 474.632 215.533 476.024 216.345 477.14C217.156 478.256 218.377 479.004 219.74 479.22C225.69 479.927 231.804 479.607 237.166 482.33C237.731 480.678 236.497 478.804 237.062 477.122C237.419 476.081 238.401 475.404 239.07 474.526C239.969 473.188 240.418 471.598 240.349 469.987C240.376 467.885 240.002 465.797 239.249 463.835C238.616 462.198 237.709 460.583 237.761 458.827C237.761 457.964 238.066 457.057 237.716 456.261C237.477 455.803 237.151 455.397 236.757 455.063C234.534 452.627 233.168 449.531 232.867 446.247C232.577 442.987 232.682 439.705 233.18 436.47C233.544 433.39 234.035 430.139 235.991 427.736C235.084 420.449 235.617 413.055 237.56 405.974C237.754 405.319 238.059 404.561 238.728 404.404C238.994 404.377 239.262 404.414 239.511 404.513C239.759 404.611 239.981 404.768 240.156 404.97C241.324 406.063 241.881 407.648 242.387 409.166C242.945 410.81 243.51 412.566 243.086 414.247C242.908 414.991 242.551 415.646 242.343 416.36C241.89 417.796 241.969 419.346 242.566 420.728C242.856 421.233 243.039 421.792 243.101 422.372C243.032 422.869 242.881 423.352 242.655 423.8C242.379 424.681 242.291 425.609 242.398 426.526C242.504 427.442 242.802 428.326 243.272 429.12C244.22 430.7 245.39 432.135 246.746 433.383C246.098 436.238 246.265 439.219 247.229 441.983C247.298 442.108 247.343 442.245 247.359 442.387C247.376 442.528 247.365 442.672 247.326 442.809C247.192 443.092 246.85 443.196 246.582 443.397C245.838 444.007 246.299 445.16 246.798 445.956C248.163 448.141 249.671 450.234 251.312 452.221C252.8 453.999 252.666 457.429 254.882 458.069C255.813 458.27 256.777 458.27 257.708 458.069C259.895 457.734 262.334 457.101 263.405 455.167C263.844 454.371 264.023 453.404 264.707 452.809C265.391 452.213 266.276 452.109 266.656 451.395C267.035 450.681 266.611 449.743 266.737 448.917C266.864 448.092 267.585 447.429 267.816 446.559C268.366 444.55 266.023 442.899 265.704 440.845C265.242 437.869 268.991 435.637 268.835 432.661C268.508 426.196 268.299 419.701 267.965 413.236C267.545 407.444 267.485 401.632 267.786 395.834C268.046 392.225 268.53 388.446 267.206 385.09C265.302 380.359 260.051 377.702 254.971 377.197C249.892 376.691 244.827 377.896 239.791 378.685C231.435 379.973 222.944 380.151 214.541 379.213V379.213Z" fill="#3F3D56"/>
<path d="M229.639 308.102C236.22 308.102 241.554 302.766 241.554 296.183C241.554 289.601 236.22 284.265 229.639 284.265C223.059 284.265 217.724 289.601 217.724 296.183C217.724 302.766 223.059 308.102 229.639 308.102Z" fill="#FBBEBE"/>
<path d="M224.79 310.327C224.385 311.269 223.705 312.067 222.838 312.616C221.971 313.164 220.958 313.437 219.933 313.399C219.502 315.185 220.536 316.985 221.718 318.391C224.174 321.25 227.347 323.401 230.911 324.624C234.475 325.847 238.3 326.097 241.993 325.348C243.43 325.09 244.793 324.522 245.987 323.681C247.596 322.337 248.677 320.465 249.036 318.399C249.379 316.347 249.476 314.262 249.326 312.187C249.368 311.777 249.251 311.367 248.999 311.041C248.702 310.81 248.334 310.69 247.958 310.699C245.444 310.475 242.819 310.379 240.61 309.144C238.401 307.909 236.831 305.119 237.895 302.827C237.724 303.184 233.38 303.355 232.808 303.43C231.015 303.683 229.223 303.965 227.438 304.293C226.58 304.34 225.732 304.5 224.917 304.769C223.838 305.327 224.24 305.052 224.493 306.064C224.872 307.611 225.43 308.72 224.79 310.327Z" fill="#FBBEBE"/>
<path d="M233.856 317.573C232.252 317.592 230.651 317.414 229.089 317.045C227.512 316.676 226.122 315.749 225.177 314.433C224.626 313.6 224.269 312.551 223.392 312.082C221.956 311.338 220.32 312.596 219.175 313.749C218.132 314.886 216.923 315.859 215.59 316.636C213.998 317.476 212.139 317.774 210.637 318.763C209.463 319.651 208.456 320.739 207.662 321.978L197.123 336.337C192.891 342.11 189.209 348.307 185.438 354.401C182.173 359.676 180.463 365.747 178.001 371.438C177.806 371.786 177.725 372.187 177.77 372.584C177.86 372.971 178.328 373.283 178.656 373.06C177.547 374.161 178.522 376.036 178.261 377.583C177.965 378.666 177.348 379.634 176.491 380.359C178.128 380.145 179.79 380.223 181.4 380.589C183.064 381.061 184.634 381.816 186.041 382.821C186.941 382.68 186.859 381.08 187.528 380.485C187.93 380.135 188.525 380.18 189.053 380.076C191.039 379.689 191.827 377.301 193.352 375.954C194.624 374.831 196.424 374.466 197.77 373.41C199.956 371.691 200.425 368.633 201.57 366.096C202.545 363.946 204.077 362.071 204.932 359.869C205.49 358.441 205.758 356.893 206.553 355.576C207.825 353.448 210.22 352.317 212.503 351.298C213.946 350.651 215.478 349.981 217.033 350.086C216.951 353.545 216.512 356.953 217.263 360.33C217.524 361.521 217.888 362.681 218.201 363.864C219.621 369.191 219.956 374.741 220.023 380.232C223.44 379.45 226.93 379.031 230.435 378.982C233.194 378.9 235.946 379.257 238.706 379.205C241.978 379.146 245.213 378.513 248.486 378.29C251.758 378.067 255.18 378.29 258.073 379.778C257.838 375.063 257.97 370.337 258.467 365.642L259.255 358.247C259.433 356.099 259.764 353.965 260.245 351.864C260.676 350.167 261.301 348.531 261.777 346.842C263.45 340.89 263.145 334.536 262.825 328.339C262.662 325.154 261.435 322.022 259.992 319.188C259.469 318.135 258.873 317.12 258.207 316.152C256.463 313.749 254.139 311.827 251.453 310.565C248.766 309.303 245.803 308.742 242.841 308.935C242.462 308.947 242.089 309.028 241.74 309.173C241.112 309.575 240.622 310.159 240.334 310.847C238.796 313.614 236.563 315.932 233.856 317.573Z" fill="#3F3D56"/>
<path d="M219.16 300.134C219.495 299.39 220.395 299.115 220.945 298.519C222.001 297.389 221.525 295.581 221.689 294.055C221.956 291.823 223.808 289.956 225.928 289.16C228.09 288.466 230.39 288.32 232.622 288.736C233.696 288.814 234.734 289.16 235.641 289.74C236.028 290.023 236.385 290.388 236.75 290.648C237.414 291.05 238.209 291.176 238.965 290.999C239.721 290.823 240.378 290.357 240.796 289.703C238.163 286.534 235.247 283.186 231.246 282.211C229.873 281.931 228.474 281.799 227.073 281.817C225.221 281.78 223.31 281.75 221.599 282.457C219.272 283.416 217.635 285.626 216.795 288.007C216.06 290.42 215.667 292.924 215.627 295.447C215.475 297.13 215.475 298.823 215.627 300.506C215.915 302.804 216.768 304.995 218.111 306.882C218.293 307.175 218.55 307.414 218.855 307.574C222.247 309.062 218.885 300.751 219.16 300.134Z" fill="#3F3D56"/>
<path d="M240.409 287.865C240 284.361 237.501 281.467 234.845 279.138C232.705 277.119 230.156 275.584 227.371 274.637C224.567 273.811 221.339 273.99 218.937 275.664C217.003 277.011 215.776 279.153 214.831 281.311C213.59 283.857 212.976 286.663 213.039 289.495C213.225 292.307 214.593 295.157 217.033 296.578C217.91 295.283 219.435 294.613 220.9 294.085C227.286 291.662 233.798 289.585 240.409 287.865V287.865Z" fill="#FED253"/>
<path opacity="0.1" d="M217.851 286.407C218.089 286.407 218.245 286.653 218.364 286.854C218.97 287.797 219.49 288.793 219.919 289.83C219.048 290.016 217.553 290.224 217.122 289.458C216.891 289.071 217.167 286.37 217.851 286.407Z" fill="black"/>
<path opacity="0.1" d="M234.801 284.726C234.622 284.897 234.414 284.547 234.414 284.294V281.408C234.409 281.327 234.427 281.247 234.466 281.177C234.497 281.142 234.535 281.113 234.577 281.092C234.619 281.072 234.665 281.06 234.712 281.058C235.314 280.991 235.812 281.504 236.199 281.995C236.786 282.791 237.297 283.641 237.724 284.532L234.578 284.436" fill="black"/>
<path d="M274.063 332.527C274.748 331.877 275.479 331.278 276.25 330.734C278.31 329.358 280.802 328.815 283.115 327.937C285.428 327.059 287.778 325.638 288.678 323.332C289.128 321.889 289.275 320.369 289.109 318.868C289.131 318.239 289.019 317.613 288.782 317.03C288.499 316.515 288.096 316.076 287.607 315.75C284.468 313.429 280.259 313.243 276.361 313.481C267.769 314.014 259.347 316.117 251.513 319.686C251.099 319.823 250.736 320.082 250.472 320.43C250.319 320.752 250.25 321.108 250.271 321.464C250.132 323.658 250.418 325.858 251.111 327.944C252.138 330.593 254.25 332.728 255.135 335.429C255.537 336.642 255.67 337.929 256.02 339.149C256.307 340.409 257.052 341.517 258.11 342.259C261.048 344.015 263.822 341.656 265.86 339.826L274.063 332.527Z" fill="#3F3D56"/>
<path d="M235.589 342.832L231.819 334.603C231.266 333.463 230.789 332.287 230.391 331.084C229.959 329.648 229.751 328.16 229.349 326.717C228.025 321.911 224.686 317.908 223.057 313.198C222.954 312.773 222.744 312.381 222.447 312.06C222.21 311.892 221.938 311.778 221.651 311.727C221.365 311.675 221.07 311.687 220.789 311.762C218.513 312.157 216.735 313.89 214.653 314.872C213.686 315.319 212.645 315.616 211.678 316.13C211.195 316.359 210.766 316.689 210.422 317.099C210.078 317.508 209.827 317.987 209.685 318.503C209.454 319.641 210.019 320.735 210.495 321.844C212.518 326.412 212.979 331.515 213.069 336.515C213.136 339.878 212.965 343.486 210.979 346.187C207.163 351.395 209.603 359.043 211.031 365.345C211.202 366.089 211.403 366.892 211.522 367.681C211.648 368.668 211.705 369.662 211.693 370.657C211.693 373.997 211.507 377.442 210.109 380.47C211.489 381.205 213.01 381.636 214.571 381.735C218.89 382.285 223.226 382.672 227.579 382.896C228.943 383.024 230.319 382.954 231.662 382.687C233.258 382.256 234.665 381.305 235.66 379.984C236.656 378.664 237.183 377.05 237.159 375.396C237.397 377.457 237.835 379.696 239.33 381.125C240.825 382.553 243.004 382.769 245.035 382.881C250.765 383.185 256.511 383.023 262.215 382.397C262.58 382.381 262.938 382.297 263.272 382.152C264.372 381.601 264.432 380.083 264.343 378.863C264.179 376.579 264.008 374.295 263.733 372.026C263.499 370.579 263.38 369.116 263.376 367.651C263.489 366.144 263.738 364.65 264.119 363.187C265.116 358.545 265.904 353.805 265.57 349.051C265.438 347.893 265.39 346.727 265.428 345.562C265.622 342.936 267.005 340.436 266.745 337.825C266.001 330.147 265.399 322.268 263.257 314.857C262.87 313.533 262.379 312.112 261.226 311.353C259.739 310.356 257.649 310.877 255.946 310.245C255.147 309.873 254.387 309.422 253.677 308.898C252.136 307.934 250.369 307.39 248.553 307.321C247.184 307.269 245.66 307.574 244.834 308.675C244.452 309.295 244.199 309.986 244.09 310.706C243.012 315.244 241.748 319.731 240.483 324.217L239.271 328.517L236.021 340.064C235.701 341.292 235.917 341.671 235.589 342.832Z" fill="#D4AF37"/>
<path d="M254.607 297.783L326.549 373.41V379.823H294.472L240.409 309.24" fill="#F1C0C0"/>
<path opacity="0.1" d="M254.607 297.783L326.549 373.41V379.823H294.472L240.409 309.24" fill="black"/>
<path opacity="0.1" d="M241.554 308.243L241.785 308.325L294.933 373.41H326.549V379.823H294.472L240.409 309.24L241.554 308.243Z" fill="black"/>
<path d="M249.832 309.836C247.229 310.974 244.336 312.432 243.555 315.17C243.401 315.65 243.367 316.162 243.458 316.658C243.648 317.242 244.011 317.754 244.498 318.127C244.986 318.5 245.575 318.717 246.188 318.749C247.412 318.778 248.63 318.555 249.765 318.094L265.124 313.02C265.54 312.886 266.016 312.685 266.12 312.276C266.147 312.018 266.095 311.759 265.971 311.532C265.495 310.371 265.027 307.998 264.03 307.187C263.212 306.532 261.591 306.763 260.602 306.778C256.794 306.808 253.216 308.348 249.832 309.836Z" fill="#D4AF37"/>
<path d="M263.524 313.622C266.112 313.615 268.684 314.014 271.148 314.805C273.622 315.609 275.814 317.107 277.462 319.121C277.942 319.683 278.284 320.351 278.459 321.07C278.608 321.814 281.032 322.26 280.497 322.766C282.126 322.506 281.739 323.272 283.39 323.257C285.041 323.242 286.826 322.818 287.815 321.501C288.502 320.42 288.809 319.139 288.685 317.863C288.707 316.98 288.54 316.102 288.194 315.289C287.451 313.727 285.74 312.886 284.163 312.164L270.88 306.086C270.109 305.676 269.282 305.382 268.426 305.215C267.705 305.147 266.978 305.165 266.261 305.267L260.245 305.959C261.56 306.811 262.632 307.991 263.353 309.383C264.074 310.775 264.42 312.331 264.357 313.898" fill="#3F3D56"/>
</g>
<g opacity="0.2">
<path opacity="0.2" d="M505.801 494.2C505.777 494.999 505.685 495.795 505.526 496.579C500.362 495.759 495.167 495.018 489.943 494.356C489.943 494.148 489.943 493.933 489.943 493.718C489.992 491.496 490.632 489.326 491.799 487.433C493.327 485.016 495.65 483.504 498.21 483.586C500.77 483.667 502.989 485.32 504.361 487.818C505.4 489.78 505.897 491.983 505.801 494.2Z" fill="#3F3D56"/>
<path opacity="0.2" d="M506.227 481.534C506.409 475.801 503.003 471.042 498.62 470.904C494.237 470.765 490.537 475.3 490.355 481.033C490.174 486.765 493.58 491.524 497.963 491.663C502.346 491.801 506.046 487.266 506.227 481.534Z" fill="#3F3D56"/>
<path opacity="0.2" d="M506.632 468.843C506.814 463.111 503.408 458.352 499.025 458.213C494.642 458.075 490.942 462.61 490.76 468.342C490.579 474.075 493.985 478.834 498.368 478.972C502.751 479.111 506.451 474.576 506.632 468.843Z" fill="#3F3D56"/>
<path opacity="0.2" d="M507.03 456.153C507.211 450.421 503.805 445.662 499.422 445.523C495.039 445.385 491.339 449.92 491.158 455.652C490.976 461.385 494.382 466.144 498.765 466.282C503.148 466.421 506.848 461.886 507.03 456.153Z" fill="#3F3D56"/>
<path opacity="0.2" d="M507.427 443.463C507.608 437.731 504.202 432.971 499.819 432.833C495.437 432.695 491.737 437.23 491.555 442.962C491.374 448.694 494.78 453.454 499.163 453.592C503.546 453.73 507.246 449.195 507.427 443.463Z" fill="#3F3D56"/>
<path opacity="0.2" d="M472.483 355.412C471.438 353.998 470.496 352.512 469.663 350.964L490.634 348.2L468.06 347.659C466.046 342.886 465.027 337.752 465.067 332.573C465.107 327.393 466.203 322.276 468.29 317.535L498.061 334.176L470.791 312.798C473.542 308.354 477.181 304.524 481.481 301.547C485.78 298.57 490.648 296.511 495.78 295.498C500.912 294.485 506.198 294.54 511.307 295.659C516.417 296.779 521.241 298.938 525.478 302.003C529.714 305.069 533.273 308.973 535.931 313.474C538.589 317.975 540.289 322.975 540.926 328.161C541.563 333.348 541.122 338.61 539.631 343.619C538.141 348.627 535.632 353.275 532.263 357.272C533.888 359.471 535.269 361.839 536.381 364.336L508.858 377.53L538.043 368.761C539.881 374.819 540.177 381.239 538.905 387.44C537.632 393.641 534.832 399.427 530.756 404.274C534.993 410.016 537.527 416.834 538.068 423.947C538.609 431.061 537.134 438.183 533.814 444.498C530.493 450.814 525.461 456.069 519.291 459.662C513.121 463.255 506.064 465.042 498.926 464.817C491.788 464.592 484.857 462.365 478.926 458.391C472.995 454.417 468.304 448.856 465.388 442.343C462.473 435.831 461.45 428.631 462.439 421.566C463.427 414.5 466.386 407.856 470.977 402.391C465.914 395.528 463.309 387.165 463.578 378.645C463.847 370.125 466.976 361.942 472.461 355.412H472.483Z" fill="black"/>
<path opacity="0.1" d="M539.661 381.044C539.401 389.569 536.263 397.756 530.756 404.274C534.993 410.016 537.527 416.834 538.068 423.947C538.609 431.061 537.134 438.183 533.814 444.498C530.493 450.814 525.461 456.069 519.291 459.662C513.121 463.255 506.064 465.042 498.926 464.817C491.788 464.592 484.857 462.365 478.926 458.391C472.995 454.417 468.304 448.856 465.388 442.343C462.473 435.831 461.45 428.631 462.439 421.566C463.427 414.5 466.386 407.856 470.977 402.391C466.101 395.772 539.794 376.782 539.661 381.044Z" fill="black"/>
</g>
<g opacity="0.2">
<path opacity="0.2" d="M393.01 494.2C392.986 494.999 392.894 495.795 392.735 496.579C387.57 495.759 382.376 495.018 377.152 494.356C377.152 494.148 377.152 493.933 377.152 493.718C377.2 491.496 377.841 489.326 379.007 487.433C380.536 485.016 382.858 483.504 385.419 483.586C387.979 483.667 390.197 485.32 391.57 487.818C392.608 489.78 393.105 491.983 393.01 494.2Z" fill="#3F3D56"/>
<path opacity="0.2" d="M393.428 481.537C393.609 475.804 390.203 471.045 385.82 470.907C381.437 470.768 377.737 475.303 377.556 481.036C377.374 486.768 380.78 491.527 385.163 491.666C389.546 491.804 393.246 487.269 393.428 481.537Z" fill="#3F3D56"/>
<path opacity="0.2" d="M393.833 468.847C394.014 463.114 390.608 458.355 386.225 458.217C381.842 458.078 378.142 462.613 377.961 468.346C377.779 474.078 381.185 478.837 385.568 478.975C389.951 479.114 393.651 474.579 393.833 468.847Z" fill="#3F3D56"/>
<path opacity="0.2" d="M394.23 456.156C394.411 450.424 391.005 445.665 386.622 445.526C382.24 445.388 378.539 449.923 378.358 455.655C378.177 461.388 381.583 466.147 385.966 466.285C390.349 466.424 394.049 461.889 394.23 456.156Z" fill="#3F3D56"/>
<path opacity="0.2" d="M394.628 443.466C394.809 437.734 391.403 432.974 387.02 432.836C382.637 432.698 378.937 437.233 378.756 442.965C378.574 448.697 381.98 453.457 386.363 453.595C390.746 453.733 394.446 449.199 394.628 443.466Z" fill="#3F3D56"/>
<path opacity="0.2" d="M359.692 355.412C358.647 353.998 357.704 352.512 356.872 350.964L377.842 348.2L355.269 347.659C353.255 342.886 352.236 337.752 352.276 332.573C352.315 327.393 353.412 322.276 355.499 317.535L385.27 334.176L358 312.798C360.751 308.354 364.39 304.524 368.689 301.547C372.989 298.57 377.856 296.511 382.988 295.498C388.12 294.485 393.406 294.54 398.516 295.659C403.626 296.779 408.45 298.938 412.686 302.003C416.923 305.069 420.482 308.973 423.14 313.474C425.798 317.975 427.498 322.975 428.135 328.161C428.771 333.348 428.331 338.61 426.84 343.619C425.349 348.627 422.841 353.275 419.471 357.272C421.096 359.471 422.477 361.839 423.589 364.336L396.067 377.53L425.252 368.761C427.09 374.819 427.386 381.239 426.113 387.44C424.841 393.641 422.04 399.427 417.965 404.274C422.202 410.016 424.736 416.834 425.277 423.947C425.817 431.061 424.343 438.183 421.023 444.498C417.702 450.814 412.669 456.069 406.499 459.662C400.33 463.255 393.272 465.042 386.134 464.817C378.996 464.592 372.065 462.365 366.135 458.391C360.204 454.417 355.512 448.856 352.597 442.343C349.681 435.831 348.659 428.631 349.647 421.566C350.636 414.5 353.594 407.856 358.185 402.391C353.123 395.528 350.517 387.165 350.786 378.645C351.055 370.125 354.184 361.942 359.669 355.412H359.692Z" fill="black"/>
<path opacity="0.1" d="M426.869 381.044C426.61 389.569 423.471 397.756 417.965 404.274C422.202 410.016 424.736 416.834 425.276 423.947C425.817 431.061 424.343 438.183 421.022 444.498C417.702 450.814 412.669 456.069 406.499 459.662C400.33 463.255 393.272 465.042 386.134 464.817C378.996 464.592 372.065 462.365 366.135 458.391C360.204 454.417 355.512 448.856 352.597 442.343C349.681 435.831 348.659 428.631 349.647 421.566C350.636 414.5 353.594 407.856 358.185 402.391C353.31 395.772 427.003 376.782 426.869 381.044Z" fill="black"/>
</g>
<g opacity="0.2">
<path opacity="0.2" d="M701.108 502.309C701.052 503.824 700.871 505.331 700.567 506.816C690.623 505.229 680.608 503.811 670.521 502.561C670.521 502.161 670.521 501.753 670.521 501.338C670.615 497.057 671.85 492.879 674.098 489.234C677.066 484.586 681.518 481.673 686.438 481.821C691.358 481.97 695.639 485.164 698.311 489.975C700.325 493.764 701.291 498.022 701.108 502.309Z" fill="#3F3D56"/>
<path opacity="0.2" d="M701.916 477.905C702.265 466.866 695.704 457.701 687.262 457.434C678.82 457.168 671.693 465.901 671.344 476.94C670.994 487.979 677.555 497.145 685.997 497.411C694.44 497.678 701.566 488.944 701.916 477.905Z" fill="#3F3D56"/>
<path opacity="0.2" d="M702.687 453.474C703.036 442.434 696.476 433.269 688.033 433.003C679.591 432.736 672.464 441.469 672.115 452.509C671.766 463.548 678.326 472.713 686.769 472.98C695.211 473.246 702.338 464.513 702.687 453.474Z" fill="#3F3D56"/>
<path opacity="0.2" d="M703.466 429.043C703.815 418.003 697.254 408.838 688.812 408.572C680.37 408.305 673.243 417.038 672.894 428.078C672.544 439.117 679.105 448.282 687.547 448.549C695.989 448.815 703.116 440.082 703.466 429.043Z" fill="#3F3D56"/>
<path opacity="0.2" d="M703.367 403.499C703.699 392.455 697.12 383.296 688.674 383.043C680.227 382.79 673.111 391.538 672.78 402.583C672.448 413.628 679.026 422.786 687.473 423.04C695.919 423.293 703.035 414.544 703.367 403.499Z" fill="#3F3D56"/>
<path opacity="0.2" d="M636.958 235.125C634.956 232.404 633.143 229.548 631.534 226.578L671.901 221.256L628.454 220.211C624.573 211.024 622.61 201.142 622.684 191.17C622.758 181.198 624.868 171.346 628.885 162.217L686.208 194.246L633.715 153.093C639.023 144.557 646.034 137.204 654.311 131.493C662.588 125.782 671.954 121.835 681.825 119.898C691.695 117.962 701.86 118.076 711.685 120.235C721.509 122.395 730.783 126.552 738.929 132.448C747.075 138.344 753.917 145.853 759.031 154.507C764.144 163.161 767.418 172.773 768.649 182.746C769.88 192.719 769.041 202.839 766.186 212.474C763.33 222.109 758.518 231.053 752.05 238.749C755.176 242.985 757.836 247.545 759.983 252.351L706.993 277.768L763.173 260.868C766.714 272.516 767.29 284.862 764.851 296.788C762.411 308.715 757.032 319.845 749.201 329.172C757.356 340.228 762.233 353.352 763.273 367.046C764.312 380.739 761.474 394.449 755.081 406.607C748.688 418.764 739 428.88 727.123 435.797C715.246 442.713 701.66 446.152 687.919 445.719C674.178 445.286 660.836 441 649.419 433.349C638.002 425.699 628.97 414.994 623.357 402.458C617.743 389.922 615.775 376.061 617.676 362.461C619.578 348.86 625.272 336.068 634.109 325.548C624.369 312.336 619.355 296.239 619.871 279.84C620.388 263.441 626.406 247.691 636.958 235.117V235.125Z" fill="black"/>
<path opacity="0.1" d="M766.297 284.461C765.811 300.864 759.797 316.622 749.23 329.187C757.386 340.242 762.262 353.367 763.302 367.061C764.342 380.754 761.503 394.464 755.111 406.621C748.718 418.779 739.029 428.895 727.152 435.811C715.275 442.728 701.69 446.166 687.949 445.734C674.208 445.301 660.866 441.014 649.448 433.364C638.031 425.714 629 415.009 623.386 402.473C617.773 389.937 615.805 376.076 617.706 362.475C619.607 348.875 625.302 336.083 634.138 325.562C624.685 312.806 766.557 276.256 766.297 284.461Z" fill="black"/>
</g>
<defs>
<clipPath id="clip0">
<rect width="876" height="539" fill="white"/>
</clipPath>
</defs>
</svg>
