<?xml version="1.0" encoding="utf-8"?>
<!-- Generator: Adobe Illustrator 24.1.2, SVG Export Plug-In . SVG Version: 6.00 Build 0)  -->
<svg version="1.1" id="Layer_1" xmlns="http://www.w3.org/2000/svg" xmlns:xlink="http://www.w3.org/1999/xlink" x="0px" y="0px"
	 viewBox="0 0 1920 1080" style="enable-background:new 0 0 1920 1080;" xml:space="preserve">
<style type="text/css">
	.st0{fill:#ED3136;stroke:#000000;stroke-miterlimit:10;}
	.st1{fill:#A9CF49;stroke:#000000;stroke-miterlimit:10;}
	.st2{font-family:'MyriadPro-Regular';}
	.st3{font-size:12px;}
	.st4{fill:#90D8F6;stroke:#000000;stroke-miterlimit:10;}
	.st5{fill:#FFF113;stroke:#000000;stroke-miterlimit:10;}
	.st6{fill:#8E937F;stroke:#000000;stroke-miterlimit:10;}
	.st7{fill:#8E937F;}
	.st8{font-family:'Roboto-Bold';}
	.st9{font-size:21px;}
</style>
<image style="display:none;overflow:visible;" width="682" height="1024" xlink:href="WhatsApp Image 2021-02-14 at 19.45.29.jpeg"  transform="matrix(0 1.5836 -1.5836 0 1770.792 -1.230569e-04)">
</image>
<g id="Ilustrasi">
	<g id="Merah">
		
			<rect x="468.6" y="623.5" transform="matrix(6.123234e-17 -1 1 6.123234e-17 -170.8131 1153.7914)" class="st0" width="45.8" height="77.6"/>
		
			<rect x="466.6" y="671.3" transform="matrix(6.123234e-17 -1 1 6.123234e-17 -218.6375 1201.6157)" class="st0" width="49.8" height="77.6"/>
	</g>
	<g id="Hijau">
		
			<rect x="626" y="493.8" transform="matrix(6.123234e-17 -1 1 6.123234e-17 161.9084 1202.4907)" class="st1" width="112.5" height="53.1"/>
		
			<rect x="677.7" y="495.1" transform="matrix(6.123234e-17 -1 1 6.123234e-17 213.6742 1254.2565)" class="st1" width="112.5" height="50.5"/>
		
			<rect x="769.4" y="495.8" transform="matrix(6.123234e-17 -1 1 6.123234e-17 263.3705 1345.9528)" class="st1" width="70.5" height="90.9"/>
		
			<rect x="777.4" y="433.3" transform="matrix(6.123234e-17 -1 1 6.123234e-17 325.9147 1283.4084)" class="st1" width="54.6" height="90.9"/>
		
			<rect x="777.7" y="379" transform="matrix(6.123234e-17 -1 1 6.123234e-17 380.1758 1229.1473)" class="st1" width="53.9" height="90.9"/>
		
			<rect x="777.7" y="325.1" transform="matrix(6.123234e-17 -1 1 6.123234e-17 434.0904 1175.2328)" class="st1" width="53.9" height="90.9"/>
		
			<rect x="767.5" y="261" transform="matrix(6.123234e-17 -1 1 6.123234e-17 498.1964 1111.1267)" class="st1" width="74.3" height="90.9"/>
		
			<rect x="562" y="661.1" transform="matrix(6.123234e-17 -1 1 6.123234e-17 -77.7989 1297.5398)" class="st1" width="95.6" height="53.1"/>
		
			<rect x="615.1" y="661.1" transform="matrix(6.123234e-17 -1 1 6.123234e-17 -24.7482 1350.5903)" class="st1" width="95.6" height="53.1"/>
		
			<rect x="724.9" y="658.9" transform="matrix(6.123234e-17 -1 1 6.123234e-17 85.0366 1455.8942)" class="st1" width="91.2" height="53.1"/>
		
			<rect x="777.9" y="658.9" transform="matrix(6.123234e-17 -1 1 6.123234e-17 138.0872 1508.9448)" class="st1" width="91.2" height="53.1"/>
		<rect x="714" y="731" class="st1" width="136.1" height="56.1"/>
		<rect x="714" y="787.1" class="st1" width="136.1" height="64.9"/>
		<path class="st1" d="M743.9,639.8c0,30.4,0,60.8,0,91.2c-18.5,1.5-37.1,3-55.6,4.5v-95.6H743.9z"/>
		
			<rect x="509" y="661.1" transform="matrix(6.123234e-17 -1 1 6.123234e-17 -130.8495 1244.4891)" class="st1" width="95.6" height="53.1"/>
		<text transform="matrix(1 0 0 1 604.39 691.3682)" class="st2 st3">A2</text>
		<text transform="matrix(1 0 0 1 656.2576 691.3682)" class="st2 st3">A3</text>
		<text transform="matrix(1 0 0 1 764.4505 689.9377)" class="st2 st3">A5</text>
		<text transform="matrix(1 0 0 1 817.4855 688.5818)" class="st2 st3">A6</text>
		<text transform="matrix(1 0 0 1 775.5269 760.8349)" class="st2 st3">A7</text>
		<text transform="matrix(1 0 0 1 775.72 822.2368)" class="st2 st3">A8</text>
		<text transform="matrix(1 0 0 1 676.6601 523.7084)" class="st2 st3">A9</text>
		<text transform="matrix(1 0 0 1 722.9453 522.9235)" class="st2 st3">A10</text>
		<text transform="matrix(1 0 0 1 793.7048 544.2653)" class="st2 st3">A11</text>
		<text transform="matrix(1 0 0 1 794.6195 482.3159)" class="st2 st3">A12</text>
		<text transform="matrix(1 0 0 1 794.5469 427.0216)" class="st2 st3">A13</text>
		<text transform="matrix(1 0 0 1 794.0946 373.0707)" class="st2 st3">A14</text>
		<text transform="matrix(1 0 0 1 794.4017 308.9997)" class="st2 st3">A15</text>
		<text transform="matrix(1 0 0 1 710.2479 690.405)" class="st2 st3">A4</text>
		<text transform="matrix(1 0 0 1 552.4593 691.4164)" class="st2 st3">A1</text>
	</g>
	<g id="Biru">
		<path class="st4" d="M965,735.1c0,38.3-0.1,76.7-0.1,115c-17.1,0.5-34.2,0.9-51.4,1.4V735.1H965z"/>
		<path class="st4" d="M1486,316.3c-2,16.7-4.1,33.3-6.1,50c-43.3,0-86.6,0.1-129.8,0.1c0.6-23,1.1-46,1.7-68.9
			C1396.5,303.7,1441.2,310,1486,316.3z"/>
		<path class="st4" d="M1479.9,366.3c-5.6,17.9-11.2,35.9-16.7,53.8c-38.2,0-76.3,0-114.5,0c0.5-17.9,0.9-35.9,1.4-53.8
			C1393.3,366.3,1436.6,366.3,1479.9,366.3z"/>
		<path class="st4" d="M1463.1,420.1c-5.8,18.4-11.6,36.9-17.5,55.3c-32.8,0-65.6,0-98.5,0c0.5-18.5,0.9-36.9,1.4-55.4
			C1386.8,420.1,1424.9,420.1,1463.1,420.1z"/>
		<path class="st4" d="M1445.6,475.4c-5.8,21.9-11.6,43.9-17.5,65.8c-27.6,0.5-55.3,1.1-82.9,1.6c0.6-22.5,1.3-45,1.9-67.5
			C1380,475.4,1412.8,475.4,1445.6,475.4z"/>
		<path class="st4" d="M966.6,268.9c0,39.1,0,78.1,0,117.2c-17.7,0-35.4,0-53.1,0V268.9H966.6z"/>
		<path class="st4" d="M1019.8,271.1c0,38.3,0,76.7-0.1,115c-17.7,0-35.4,0-53.1,0V268.9C984.4,269.6,1002.1,270.3,1019.8,271.1z"/>
		<path class="st4" d="M1072.9,272.1c0,38,0,76,0,114c-17.7,0-35.4,0-53.1,0v-115C1037.5,271.4,1055.2,271.7,1072.9,272.1z"/>
		<path class="st4" d="M1126.1,272.1c0,38,0,76,0,114c-17.7,0-35.5,0-53.2,0v-114C1090.6,272.1,1108.4,272.1,1126.1,272.1z"/>
		<path class="st4" d="M1179.3,278.4c0,35.9,0,71.8,0,107.6c-17.7,0-35.5,0-53.2,0v-114C1143.8,274.2,1161.5,276.3,1179.3,278.4z"/>
		<path class="st4" d="M1232.6,281.5c0,34.8-0.1,69.7-0.1,104.5c-17.7,0-35.5,0-53.2,0V278.4C1197,279.5,1214.8,280.5,1232.6,281.5z
			"/>
		<path class="st4" d="M1288.7,292.1c-0.8,31.3-1.5,62.6-2.3,93.9c-17.9,0-35.9,0-53.8,0V281.5
			C1251.3,285.1,1270,288.6,1288.7,292.1z"/>
		<path class="st4" d="M1018.8,735.1c0,37.9-0.1,75.8-0.1,113.6c-17.9,0.5-35.8,0.9-53.7,1.4v-115H1018.8z"/>
		<path class="st4" d="M1072.6,735.1c0,37,0.1,74.1,0.1,111.1c-18,0.8-35.9,1.7-53.9,2.5V735.1H1072.6z"/>
		<path class="st4" d="M1126.5,735.1c0,36,0,72,0,108c-17.9,1-35.9,2.1-53.8,3.1V735.1H1126.5z"/>
		<path class="st4" d="M1180.3,735.1c0,34.3,0.1,68.7,0.1,103c-18,1.7-35.9,3.3-53.9,5v-108H1180.3z"/>
		<path class="st4" d="M1234.2,735.1c0,32.8,0.1,65.5,0.1,98.3c-18,1.6-35.9,3.2-53.9,4.7v-103H1234.2z"/>
		<path class="st4" d="M1288.1,735.1c0,30.1,0,60.3,0,90.4c-17.9,2.6-35.8,5.3-53.7,7.9v-98.3H1288.1z"/>
		<path class="st4" d="M1340.1,734.5c0,28.3,0,56.5-0.1,84.8c-17.3,2-34.7,4.1-52,6.1v-91H1340.1z"/>
		<text transform="matrix(1 0 0 1 932.4069 797.6811)" class="st2 st3">C1</text>
		<text transform="matrix(1 0 0 1 985.3984 796.9901)" class="st2 st3">C2</text>
		<text transform="matrix(1 0 0 1 1038.9905 795.5704)" class="st2 st3">C3</text>
		<text transform="matrix(1 0 0 1 1093.1885 795.219)" class="st2 st3">C4</text>
		<text transform="matrix(1 0 0 1 1146.8501 792.8612)" class="st2 st3">C5</text>
		<text transform="matrix(1 0 0 1 1201.0829 790.7811)" class="st2 st3">C6</text>
		<text transform="matrix(1 0 0 1 1254.9204 787.6996)" class="st2 st3">C7</text>
		<text transform="matrix(1 0 0 1 1308.0005 783.8729)" class="st2 st3">C8</text>
		<text transform="matrix(1 0 0 1 934.1962 331.7711)" class="st2 st3">C9</text>
		<text transform="matrix(1 0 0 1 983.0004 331.9737)" class="st2 st3">C10</text>
		<text transform="matrix(1 0 0 1 1036.575 333.0646)" class="st2 st3">C11</text>
		<text transform="matrix(1 0 0 1 1089.7003 333.51)" class="st2 st3">C12</text>
		<text transform="matrix(1 0 0 1 1142.9917 333.9729)" class="st2 st3">C13</text>
		<text transform="matrix(1 0 0 1 1195.3336 335.9671)" class="st2 st3">C14</text>
		<text transform="matrix(1 0 0 1 1250.0963 338.1643)" class="st2 st3">C15</text>
		<text transform="matrix(1 0 0 1 1385.6545 513.1005)" class="st2 st3">C19</text>
		<text transform="matrix(1 0 0 1 1394.6284 451.7492)" class="st2 st3">C18</text>
		<text transform="matrix(1 0 0 1 1404.0101 397.3188)" class="st2 st3">C17</text>
		<text transform="matrix(1 0 0 1 1408.1885 336.9965)" class="st2 st3">C16</text>
	</g>
	<g id="Kuning">
		
			<rect x="931.6" y="436" transform="matrix(6.123234e-17 -1 1 6.123234e-17 477.4717 1440.3578)" class="st5" width="54.6" height="90.9"/>
		
			<rect x="977" y="481.5" transform="matrix(6.123234e-17 -1 1 6.123234e-17 522.842 1539.804)" class="st5" width="108.7" height="53.9"/>
		
			<rect x="976.7" y="590.5" transform="matrix(6.123234e-17 -1 1 6.123234e-17 413.8926 1648.7533)" class="st5" width="109.2" height="53.9"/>
		
			<rect x="1030.9" y="481.5" transform="matrix(6.123234e-17 -1 1 6.123234e-17 576.747 1593.7091)" class="st5" width="108.7" height="53.9"/>
		
			<rect x="1030.6" y="590.5" transform="matrix(6.123234e-17 -1 1 6.123234e-17 467.7977 1702.6584)" class="st5" width="109.2" height="53.9"/>
		
			<rect x="1084.8" y="481.5" transform="matrix(6.123234e-17 -1 1 6.123234e-17 630.6521 1647.6141)" class="st5" width="108.7" height="53.9"/>
		
			<rect x="1084.5" y="590.5" transform="matrix(6.123234e-17 -1 1 6.123234e-17 521.7027 1756.5635)" class="st5" width="109.2" height="53.9"/>
		
			<rect x="1138.7" y="481.5" transform="matrix(6.123234e-17 -1 1 6.123234e-17 684.5571 1701.5192)" class="st5" width="108.7" height="53.9"/>
		
			<rect x="1138.4" y="590.5" transform="matrix(6.123234e-17 -1 1 6.123234e-17 575.6078 1810.4685)" class="st5" width="109.2" height="53.9"/>
		<path class="st5" d="M1288.7,454.1c-1.8,36.2-3.5,72.3-5.3,108.5c-21.1,0.1-42.3,0.1-63.4,0.2V454.1H1288.7z"/>
		<path class="st5" d="M1283.4,562.6c-1.6,36.5-3.1,72.9-4.7,109.4c-19.6,0-39.2,0-58.7,0V562.8
			C1241.1,562.8,1262.3,562.7,1283.4,562.6z"/>
		
			<rect x="931.6" y="490.1" transform="matrix(6.123234e-17 -1 1 6.123234e-17 423.3958 1494.4337)" class="st5" width="54.6" height="90.9"/>
		
			<rect x="931.6" y="544.7" transform="matrix(6.123234e-17 -1 1 6.123234e-17 368.7881 1549.0414)" class="st5" width="54.6" height="90.9"/>
		
			<rect x="931.6" y="599.3" transform="matrix(6.123234e-17 -1 1 6.123234e-17 314.1806 1603.6489)" class="st5" width="54.6" height="90.9"/>
		<text transform="matrix(1 0 0 1 951.9663 485.2558)" class="st2 st3">B1</text>
		<text transform="matrix(1 0 0 1 952.53 538.7847)" class="st2 st3">B2</text>
		<text transform="matrix(1 0 0 1 952.881 593.3416)" class="st2 st3">B3</text>
		<text transform="matrix(1 0 0 1 954.1941 648.3542)" class="st2 st3">B4</text>
		<text transform="matrix(1 0 0 1 1026.2258 619.2529)" class="st2 st3">B5</text>
		<text transform="matrix(1 0 0 1 1081.8213 619.2526)" class="st2 st3">B6</text>
		<text transform="matrix(1 0 0 1 1133.4607 619.2526)" class="st2 st3">B7</text>
		<text transform="matrix(1 0 0 1 1187.2078 619.7716)" class="st2 st3">B8</text>
		<text transform="matrix(1 0 0 1 1246.1478 620.0438)" class="st2 st3">B9</text>
		<text transform="matrix(1 0 0 1 1240.9066 513.9298)" class="st2 st3">B10</text>
		<text transform="matrix(1 0 0 1 1181.2578 513.2811)" class="st2 st3">B11</text>
		<text transform="matrix(1 0 0 1 1128.3923 513.7368)" class="st2 st3">B12</text>
		<text transform="matrix(1 0 0 1 1073.9685 513.6299)" class="st2 st3">B13</text>
		<text transform="matrix(1 0 0 1 1020.5505 513.9299)" class="st2 st3">B14</text>
	</g>
	<g id="Jalan">
		<rect x="376.7" y="315.4" class="st6" width="47.5" height="661.3"/>
		
			<rect x="605.5" y="394.8" transform="matrix(6.123234e-17 -1 1 6.123234e-17 29.4132 1244.8783)" class="st6" width="63.3" height="425.9"/>
		
			<rect x="1069.8" y="516.2" transform="matrix(6.123234e-17 -1 1 6.123234e-17 397.2455 1804.9005)" class="st6" width="62.5" height="375.2"/>
		
			<rect x="1067" y="232.5" transform="matrix(6.123234e-17 -1 1 6.123234e-17 680.978 1521.1678)" class="st6" width="68.1" height="375.2"/>
		<rect x="850.1" y="268.9" class="st6" width="63.3" height="582.6"/>
		<path class="st6" d="M1340.1,734.5c-20.7,0.2-41.5,0.4-62.2,0.5c3.6-147.7,7.2-295.3,10.8-443h63.3
			C1348,439.6,1344.1,587.1,1340.1,734.5z"/>
		<rect x="423.1" y="576.6" class="st7" width="3" height="62.3"/>
		<rect x="848.7" y="576.6" class="st7" width="3" height="62.3"/>
		<rect x="911.9" y="386.5" class="st7" width="3" height="67.1"/>
		<rect x="1283.6" y="386.6" class="st7" width="4.3" height="67.1"/>
		<rect x="912.1" y="673.1" class="st7" width="3" height="61.5"/>
		<rect x="1277.2" y="673.1" class="st7" width="3.9" height="61.5"/>
	</g>
	<g id="Arah_Mata_Angin">
		<path d="M1363.1,924.3l0.2,0.2l24.7,4l0.1,0.1c1.2,18,13.6,35.6,30.5,42.8c5.2,2.3,10.7,3.8,16.7,4.3l0.2,0.3l3.9,24.5
			c0.1,0.2,0.4,0.4,0.6,0.2l0.2-0.2l4-24.6l0.1-0.1c18.1-1.2,35.9-13.8,43.1-30.9c2.2-5.1,3.6-10.5,4.1-16.2l0.3-0.2l24.5-3.9
			c0.2-0.1,0.4-0.4,0.2-0.6l-0.2-0.2l-24.6-4l-0.1-0.1c-1.2-18.1-13.8-35.9-30.9-43c-5.1-2.2-10.5-3.6-16.3-4.1l-0.2-0.3l-3.9-24.5
			c0-0.2-0.3-0.2-0.4-0.3c-0.3,0-0.5,0.2-0.5,0.5l-3.9,24.4l-0.1,0.1c-18,1.2-35.6,13.6-42.8,30.5c-2.3,5.2-3.8,10.8-4.3,16.7
			l-0.3,0.2l-24.5,3.9C1363.1,923.8,1362.9,924.1,1363.1,924.3z M1474.5,888.3c-0.9,0.6-1.9,1.1-2.9,1.6c-2.2-2.1-4.5-3.9-7-5.4
			l-0.1,0.1l-1,8l-5.9-3.7l6.8-4.5c-5.9-3.7-12.4-5.9-19.4-6.8l-0.5-3.2c11.4,1.2,21.5,5.7,30,13.8V888.3z M1472.2,916.6l-11.5-1.9
			l5.7-9.8l0.3-0.3C1469.4,908.2,1471.2,912.2,1472.2,916.6z M1467.7,902.7l1.9-3.1c2.9,3.6,5.1,7.5,6.6,11.6c0.7,2,1.4,4.1,1.6,6.3
			l-3.5-0.6C1473.2,911.7,1471,907,1467.7,902.7z M1459.8,914.3l-0.2,0.2c-2.8-0.5-5.6-0.8-8.3-1.4l22-22L1459.8,914.3z
			 M1449.1,903.1l-1.9-11.5c4.4,1,8.5,2.8,12.1,5.5l-0.1,0.1L1449.1,903.1z M1447,889.6L1447,889.6l-0.7-3.6
			c6.6,1.1,12.6,3.9,17.9,8.2c-1,0.7-2,1.2-3.1,1.8h-0.2C1456.8,892.8,1452.1,890.7,1447,889.6z M1489.4,919.4
			c-1.1-0.2-2.2-0.3-3.2-0.6c-0.8-7.1-3-13.6-6.8-19.3l-4.5,6.8l-3.7-6l7.9-1l0.1-0.1c-1.5-2.4-3.3-4.7-5.4-6.9
			c0.5-1,1.1-1.9,1.6-2.9h0.1c4.4,4.6,7.7,9.7,10.1,15.1C1487.7,909.1,1489.1,914.2,1489.4,919.4z M1475.5,958.9
			c-0.6-0.9-1.1-1.9-1.6-2.9c2.1-2.2,3.9-4.5,5.4-7l-0.1-0.1l-7.9-1l3.7-5.9l4.5,6.8c3.7-5.9,5.9-12.4,6.8-19.4l3.2-0.5
			c-1.2,11.4-5.7,21.5-13.8,30H1475.5z M1447.2,956.7l1.9-11.5l9.8,5.7l0.3,0.3C1455.6,953.9,1451.6,955.7,1447.2,956.7z
			 M1461.1,952.2l3.1,1.9c-3.6,2.9-7.5,5.1-11.7,6.6c-2,0.7-4.1,1.4-6.2,1.6l0.6-3.5C1452.1,957.7,1456.8,955.4,1461.1,952.2z
			 M1449.3,944.1c0.5-2.8,0.8-5.6,1.4-8.3l22,22l-23.1-13.5L1449.3,944.1z M1460.7,933.6l11.5-1.9c-1,4.4-2.8,8.5-5.5,12.1l-0.1-0.1
			L1460.7,933.6z M1474.2,931.5l0.1-0.1l3.5-0.6c-1.1,6.6-3.9,12.6-8.2,17.9c-0.6-1-1.1-2.1-1.8-3v-0.2
			C1471,941.3,1473.1,936.6,1474.2,931.5z M1444.5,973.9c0.2-1.1,0.3-2.2,0.6-3.2c7.1-0.8,13.6-3,19.3-6.8l-6.8-4.5l6-3.7l1,8
			l0.1,0.1c2.4-1.5,4.8-3.3,7-5.4c1,0.5,1.9,1.1,2.9,1.6v0.1c-4.6,4.4-9.7,7.7-15.1,10.1C1454.7,972.1,1449.7,973.5,1444.5,973.9z
			 M1440.9,924.6h68.9l-58.6,9.5l-0.8,0.1L1440.9,924.6z M1440.1,854l9.5,58.6l0,0.8l-9.6,9.5V854z M1403.8,889.4
			c0.6,0.9,1.1,1.9,1.6,2.9c-2.1,2.2-3.9,4.5-5.4,6.9l0.1,0.1l8,1.1l-3.7,5.9l-4.5-6.8c-3.7,5.9-5.9,12.4-6.8,19.4l-3.2,0.5
			c1.2-11.4,5.7-21.5,13.8-30H1403.8z M1432.1,891.6l-1.9,11.4l-9.8-5.7l-0.3-0.3C1423.8,894.4,1427.8,892.6,1432.1,891.6z
			 M1418.3,896.1c-1-0.6-2.2-1.2-3.1-1.9c5.3-4.3,11.2-7.1,17.9-8.2l-0.6,3.5C1427.3,890.6,1422.6,892.9,1418.3,896.1z
			 M1430.1,904.2c-0.5,2.8-0.8,5.6-1.4,8.3l-21.9-22l23.1,13.5L1430.1,904.2z M1418.6,914.7l-11.5,1.9c1-4.4,2.8-8.5,5.5-12.1
			L1418.6,914.7z M1405.2,916.8l-0.1,0.1l-3.5,0.6c1.1-6.6,3.9-12.6,8.2-17.9l1.8,3v0.2C1408.4,907,1406.2,911.7,1405.2,916.8z
			 M1434.9,874.4c-0.2,1.1-0.3,2.2-0.6,3.3c-7.1,0.8-13.6,3.1-19.3,6.8l6.8,4.5l-6,3.7l-1-8l-0.1-0.1c-2.4,1.5-4.7,3.3-6.9,5.4
			c-1-0.5-1.9-1-2.9-1.6v-0.1C1413.4,880.1,1423.4,875.5,1434.9,874.4z M1429.7,935.6l-0.1-0.8l9.6-9.5v68.9L1429.7,935.6z
			 M1407.2,931.7h0.1l11.3,1.9l-5.7,9.8l-0.3,0.3C1410,940.1,1408.1,936.1,1407.2,931.7z M1411.6,945.6l-1.9,3.1
			c-4.2-5.3-7.1-11.3-8.2-17.9c1.2,0.1,2.3,0.5,3.5,0.6C1406.2,936.5,1408.4,941.3,1411.6,945.6z M1419.7,933.7
			c2.8,0.5,5.6,0.8,8.3,1.4l-22,22L1419.7,933.7z M1418.3,952.2c4.3,3.2,8.9,5.4,14.1,6.5l0.1,0.1l0.6,3.5
			c-6.7-1.1-12.6-3.9-17.9-8.2C1416.1,953.4,1417.2,952.8,1418.3,952.2z M1430.3,945.2l1.9,11.5c-4.4-1-8.5-2.8-12.1-5.5l0.1-0.1
			L1430.3,945.2z M1404.9,960c1-0.5,1.9-1.1,2.9-1.6c2.2,2.1,4.5,3.9,6.9,5.4l0.1-0.1l1.1-8l5.9,3.7l-6.8,4.5
			c5.9,3.7,12.4,5.9,19.4,6.8l0.5,3.2c-11.5-1.1-21.5-5.7-30-13.8V960z M1389.9,928.9c1.1,0.2,2.2,0.3,3.3,0.6
			c0.8,7.1,3.1,13.6,6.8,19.3l4.5-6.8l3.7,6l-8,1l-0.1,0.1c1.5,2.4,3.3,4.8,5.4,7c-0.5,1-1,1.9-1.6,2.9h-0.1
			C1395.6,950.4,1391.1,940.4,1389.9,928.9z M1369.6,923.7l58.7-9.5l0.8-0.1l9.5,9.6H1369.6z"/>
		<g>
			<g>
				<text transform="matrix(1 0 0 1 1522.7904 930.4675)" class="st8 st9">U</text>
			</g>
			<g>
				<text transform="matrix(1 0 0 1 1344.7045 930.5964)" class="st8 st9">S</text>
			</g>
		</g>
		<g>
			<g>
				<text transform="matrix(1 0 0 1 1433.4076 1021.7703)" class="st8 st9">T</text>
			</g>
		</g>
		<g>
			<g>
				<text transform="matrix(1 0 0 1 1433.1459 840.3396)" class="st8 st9">B</text>
			</g>
		</g>
		<g>
			<path d="M1384.6,920.3c1.9-27.4,23.8-49.4,51.2-51.3l0.8-5.2c-30.9,1.5-55.8,26.4-57.3,57.3L1384.6,920.3z"/>
			<path d="M1443.5,869.1c27.4,1.9,49.4,23.8,51.3,51.2l5.2,0.8c-1.5-30.9-26.4-55.8-57.3-57.3L1443.5,869.1z"/>
			<path d="M1494.8,928c-1.9,27.4-23.8,49.4-51.2,51.3l-0.8,5.2c30.9-1.5,55.8-26.4,57.3-57.3L1494.8,928z"/>
			<path d="M1435.9,979.2c-27.4-1.9-49.4-23.8-51.3-51.2l-5.2-0.8c1.5,30.9,26.4,55.8,57.3,57.3L1435.9,979.2z"/>
		</g>
	</g>
	
		<image style="overflow:visible;" width="5000" height="5000" id="Logo" xlink:href="Logo.png"  transform="matrix(4.960000e-02 0 0 4.960000e-02 275.3586 6.8649)">
	</image>
</g>
</svg>
