<svg width="947" height="515" viewBox="0 0 947 515" fill="none" xmlns="http://www.w3.org/2000/svg">
<g clip-path="url(#clip0)">
<path d="M476.539 515C733.326 515 941.492 501.218 941.492 484.216C941.492 467.215 733.326 453.433 476.539 453.433C219.752 453.433 11.5851 467.215 11.5851 484.216C11.5851 501.218 219.752 515 476.539 515Z" fill="#F2F2F2"/>
<path d="M458.718 147.219C382.965 147.219 328.574 195.825 328.574 309.237C328.574 437.771 382.965 471.795 458.718 471.795C534.472 471.795 592.102 434.531 592.102 309.237C592.102 175.302 534.472 147.219 458.718 147.219ZM459.216 429.131C406.747 429.131 379.336 398.346 379.336 309.32C379.336 230.768 407.87 189.344 460.338 189.344C512.807 189.344 541.341 216.554 541.341 309.32C541.341 396.102 511.685 429.131 459.216 429.131Z" fill="#2F2E41"/>
<path d="M283.213 382.145H251.892V289.906C251.892 285.006 249.946 280.308 246.482 276.844C243.018 273.379 238.32 271.433 233.421 271.433H226.082C223.656 271.433 221.254 271.911 219.013 272.839C216.772 273.768 214.736 275.128 213.021 276.844C211.306 278.559 209.945 280.595 209.017 282.837C208.089 285.078 207.611 287.48 207.611 289.906V382.145H119.265C117.448 382.145 115.661 381.676 114.079 380.782C112.496 379.888 111.172 378.6 110.234 377.043C109.296 375.486 108.776 373.713 108.725 371.896C108.673 370.08 109.093 368.28 109.942 366.673L203.446 189.685C204.612 187.479 205.318 185.059 205.523 182.571C205.728 180.084 205.426 177.581 204.637 175.214C203.848 172.846 202.587 170.663 200.931 168.796C199.275 166.929 197.258 165.418 195.001 164.352L189.482 161.745C185.196 159.721 180.296 159.422 175.795 160.91C171.295 162.399 167.539 165.56 165.305 169.74L51.2641 383.092C49.3221 386.725 48.3062 390.781 48.3062 394.901C48.3062 398.19 48.954 401.448 50.2127 404.487C51.4714 407.526 53.3163 410.287 55.6421 412.613C57.9679 414.939 60.729 416.784 63.7678 418.043C66.8066 419.302 70.0635 419.949 73.3527 419.949H207.611V478.276C207.611 481.184 208.184 484.063 209.296 486.749C210.409 489.436 212.04 491.877 214.096 493.933C216.152 495.989 218.592 497.62 221.279 498.733C223.965 499.846 226.844 500.418 229.751 500.418H229.751C232.659 500.418 235.538 499.846 238.224 498.733C240.911 497.62 243.351 495.989 245.407 493.933C247.463 491.877 249.094 489.436 250.207 486.749C251.319 484.063 251.892 481.184 251.892 478.276V419.95H283.213C288.226 419.95 293.033 417.958 296.578 414.413C300.122 410.868 302.114 406.061 302.114 401.047C302.114 396.034 300.122 391.226 296.578 387.682C293.033 384.137 288.226 382.145 283.213 382.145Z" fill="#D4AF37"/>
<path d="M863.19 382.145H831.869V289.906C831.869 285.006 829.923 280.308 826.459 276.844C822.995 273.379 818.297 271.433 813.398 271.433H806.059C803.633 271.433 801.231 271.911 798.99 272.839C796.749 273.768 794.713 275.128 792.998 276.844C791.283 278.559 789.922 280.595 788.994 282.837C788.066 285.078 787.588 287.48 787.588 289.906V382.145H699.242C697.425 382.145 695.638 381.676 694.056 380.782C692.473 379.888 691.149 378.6 690.211 377.043C689.273 375.486 688.753 373.713 688.702 371.896C688.65 370.08 689.07 368.28 689.919 366.673L783.423 189.685C784.589 187.479 785.295 185.059 785.5 182.571C785.705 180.084 785.403 177.581 784.614 175.214C783.825 172.846 782.564 170.663 780.908 168.796C779.252 166.929 777.235 165.418 774.978 164.352L769.459 161.745C765.173 159.721 760.273 159.422 755.772 160.91C751.272 162.399 747.516 165.56 745.282 169.74L631.241 383.092C629.299 386.725 628.283 390.781 628.283 394.901C628.283 401.544 630.922 407.915 635.619 412.613C640.316 417.31 646.687 419.949 653.33 419.949H787.588V478.276C787.588 484.148 789.921 489.78 794.073 493.933C798.225 498.085 803.856 500.418 809.728 500.418C815.601 500.418 821.232 498.085 825.384 493.933C829.536 489.78 831.869 484.148 831.869 478.276V419.95H863.19C868.203 419.95 873.01 417.958 876.555 414.413C880.099 410.868 882.091 406.061 882.091 401.047C882.091 396.034 880.099 391.226 876.555 387.682C873.01 384.137 868.203 382.145 863.19 382.145Z" fill="#D4AF37"/>
<path d="M291.853 371.344H260.532V279.104C260.532 276.679 260.055 274.276 259.126 272.035C258.198 269.794 256.838 267.758 255.122 266.042C253.407 264.327 251.371 262.966 249.13 262.038C246.889 261.11 244.487 260.632 242.061 260.632H234.722C229.823 260.632 225.125 262.578 221.661 266.042C218.197 269.507 216.251 274.205 216.251 279.104V371.344H127.905C126.088 371.344 124.301 370.874 122.719 369.98C121.137 369.086 119.812 367.798 118.874 366.242C117.936 364.685 117.416 362.912 117.365 361.095C117.314 359.278 117.733 357.479 118.582 355.872L212.086 178.884C213.252 176.677 213.958 174.257 214.163 171.77C214.368 169.283 214.067 166.78 213.277 164.412C212.488 162.045 211.228 159.862 209.571 157.995C207.915 156.128 205.898 154.616 203.642 153.551L198.122 150.944C193.836 148.92 188.936 148.621 184.436 150.109C179.935 151.597 176.179 154.759 173.945 158.939L59.9043 372.291C57.9624 375.924 56.9464 379.98 56.9464 384.1V384.1C56.9464 390.743 59.5852 397.114 64.2824 401.812C68.9795 406.509 75.3502 409.148 81.9929 409.148H216.251V467.475C216.251 470.382 216.824 473.262 217.936 475.948C219.049 478.635 220.68 481.076 222.736 483.132C224.792 485.188 227.233 486.819 229.919 487.932C232.605 489.044 235.484 489.617 238.392 489.617H238.392C244.264 489.617 249.895 487.284 254.048 483.132C258.2 478.979 260.532 473.347 260.532 467.475V409.148H291.853C294.335 409.148 296.793 408.659 299.086 407.709C301.379 406.759 303.463 405.367 305.218 403.612C306.973 401.857 308.365 399.773 309.315 397.48C310.265 395.186 310.754 392.728 310.754 390.246V390.246C310.754 387.764 310.265 385.306 309.315 383.013C308.365 380.719 306.973 378.636 305.218 376.88C303.463 375.125 301.379 373.733 299.086 372.783C296.793 371.833 294.335 371.344 291.853 371.344V371.344Z" stroke="#3F3D56" stroke-miterlimit="10"/>
<path d="M879.391 371.344H848.07V279.104C848.07 274.205 846.124 269.507 842.66 266.042C839.196 262.578 834.497 260.632 829.599 260.632H822.259C819.834 260.632 817.432 261.11 815.191 262.038C812.95 262.966 810.914 264.327 809.198 266.042C807.483 267.758 806.123 269.794 805.194 272.035C804.266 274.276 803.788 276.679 803.788 279.104V371.344H715.443C713.625 371.344 711.839 370.874 710.256 369.98C708.674 369.086 707.349 367.798 706.411 366.242C705.473 364.685 704.953 362.912 704.902 361.095C704.851 359.278 705.27 357.479 706.119 355.872L799.623 178.884C800.789 176.677 801.496 174.257 801.7 171.77C801.905 169.283 801.604 166.78 800.815 164.412C800.026 162.045 798.765 159.862 797.109 157.995C795.453 156.128 793.435 154.616 791.179 153.551L785.659 150.944C781.373 148.92 776.473 148.621 771.973 150.109C767.473 151.597 763.717 154.759 761.482 158.939L647.442 372.291C645.5 375.924 644.484 379.98 644.484 384.1C644.484 390.743 647.122 397.114 651.82 401.812C656.517 406.509 662.887 409.148 669.53 409.148H803.788V467.475C803.788 473.347 806.121 478.979 810.273 483.132C814.425 487.284 820.057 489.617 825.929 489.617V489.617C831.801 489.617 837.433 487.284 841.585 483.132C845.737 478.979 848.07 473.347 848.07 467.475V409.148H879.391C881.873 409.148 884.33 408.659 886.623 407.709C888.917 406.759 891 405.367 892.755 403.612C894.51 401.857 895.903 399.773 896.852 397.48C897.802 395.186 898.291 392.728 898.291 390.246V390.246C898.291 385.233 896.3 380.425 892.755 376.88C889.211 373.336 884.403 371.344 879.391 371.344V371.344Z" stroke="#3F3D56" stroke-miterlimit="10"/>
<path d="M475.999 137.498C400.245 137.498 345.855 186.103 345.855 299.516C345.855 428.05 400.245 462.074 475.999 462.074C551.752 462.074 609.383 424.81 609.383 299.516C609.383 165.581 551.752 137.498 475.999 137.498ZM476.497 419.409C424.028 419.409 396.616 388.625 396.616 299.599C396.616 221.047 425.15 179.623 477.619 179.623C530.088 179.623 558.621 206.833 558.621 299.599C558.621 386.38 528.965 419.409 476.497 419.409V419.409Z" stroke="#3F3D56" stroke-miterlimit="10"/>
<path d="M415.277 27.4601C421.558 27.4601 426.649 22.3685 426.649 16.0877C426.649 9.80693 421.558 4.71533 415.277 4.71533C408.997 4.71533 403.906 9.80693 403.906 16.0877C403.906 22.3685 408.997 27.4601 415.277 27.4601Z" fill="#2F2E41"/>
<path d="M443.013 82.6579C460.628 82.6579 474.908 64.1543 474.908 41.3289C474.908 18.5036 460.628 0 443.013 0C425.397 0 411.117 18.5036 411.117 41.3289C411.117 64.1543 425.397 82.6579 443.013 82.6579Z" fill="#2F2E41"/>
<path opacity="0.1" d="M443.013 70.176C427.034 70.176 413.801 54.952 411.479 35.088C411.237 37.1595 411.116 39.2434 411.117 41.329C411.117 64.1543 425.397 82.6579 443.013 82.6579C460.628 82.6579 474.908 64.1543 474.908 41.329C474.909 39.2434 474.788 37.1595 474.546 35.088C472.224 54.952 458.991 70.176 443.013 70.176Z" fill="black"/>
<path d="M507.916 162.363C507.231 165.178 504.278 167.432 501.007 169.007C494.13 172.319 485.648 173.307 477.42 173.639C475.321 173.766 473.216 173.727 471.123 173.522C467.068 173.13 463.263 171.381 460.325 168.558C460.115 168.422 459.943 168.234 459.826 168.013C459.708 167.792 459.649 167.545 459.653 167.294C459.656 167.044 459.724 166.799 459.848 166.581C459.972 166.364 460.15 166.182 460.363 166.051C464.744 161.239 472.053 158.289 479.417 156.164C485 154.554 494.737 150.381 500.827 150.944C506.725 151.49 508.781 158.808 507.916 162.363Z" fill="#3F3D56"/>
<path opacity="0.1" d="M507.916 162.363C507.231 165.178 504.278 167.432 501.007 169.007C494.13 172.319 485.648 173.307 477.42 173.639C475.321 173.766 473.216 173.727 471.123 173.522C467.068 173.13 463.263 171.381 460.325 168.558C460.115 168.422 459.943 168.234 459.826 168.013C459.708 167.792 459.649 167.545 459.653 167.294C459.656 167.044 459.724 166.799 459.848 166.581C459.972 166.364 460.15 166.182 460.363 166.051C464.744 161.239 472.053 158.289 479.417 156.164C485 154.554 494.737 150.381 500.827 150.944C506.725 151.49 508.781 158.808 507.916 162.363Z" fill="black"/>
<path d="M420.48 141.323C418.381 145.438 418.001 150.217 419.424 154.612C420.871 158.973 423.579 162.807 427.206 165.628C436.104 172.761 448.35 173.742 459.753 173.643C469.746 173.556 479.726 172.872 489.638 171.595C492.959 171.3 496.223 170.542 499.335 169.343C503.056 167.733 506.327 164.779 507.652 160.946C508.977 157.113 508.036 152.42 504.889 149.862C502.125 147.614 498.312 147.305 494.755 147.091L474.405 145.868C476.415 143.833 479.092 142.682 481.541 141.203C484.789 139.241 486.947 135.945 489.309 132.975C492.948 128.625 496.908 124.554 501.154 120.795C501.816 124.595 504.22 127.715 507.049 130.336C509.877 132.958 513.138 135.069 516.078 137.565C523.199 143.61 528.326 151.816 535.815 157.399C540.967 156.045 545.783 153.64 549.961 150.336L547.05 145.063C546.808 144.521 546.43 144.05 545.953 143.695C545.129 143.188 544.067 143.449 543.11 143.306C540.554 142.922 539.437 139.97 538.434 137.587C535.679 131.045 530.406 125.969 525.902 120.482C522.577 116.433 519.628 112.089 517.091 107.504C515.578 104.77 514.193 101.923 512.14 99.5679C510.086 97.2124 507.209 95.3605 504.085 95.3539C501.324 95.3481 498.777 96.7498 496.404 98.1598C489.174 102.455 482.218 107.194 475.575 112.351C472.099 115.05 468.645 117.901 464.567 119.556C462.85 120.253 461.041 120.729 459.394 121.577C456.509 123.062 454.319 125.574 451.962 127.804C443.555 135.758 432.046 140.911 420.48 141.323Z" fill="#3F3D56"/>
<path d="M463.032 84.7105C462.937 87.1418 462.42 89.538 461.504 91.7919C461.039 92.916 460.348 93.9323 459.473 94.7775C458.599 95.6226 457.559 96.2785 456.42 96.7042C454.802 97.1377 453.106 97.1927 451.463 96.8651C450.031 96.7155 448.651 96.2453 447.425 95.4893C445.517 94.1773 444.566 91.8363 444.219 89.5451C443.872 87.2567 444.028 84.9185 443.806 82.6135C443.59 80.7517 443.235 78.9086 442.746 77.0993C442.597 76.4974 442.444 75.8983 442.294 75.2991C442.147 74.7 442.003 74.1009 441.87 73.5018C441.748 72.9387 441.634 72.3728 441.537 71.8042C441.457 71.3244 441.384 70.8417 441.332 70.3563C441.283 68.9173 441.043 67.4911 440.619 66.1153C440.22 65.223 439.722 64.3789 439.132 63.5995C438.88 63.2389 438.636 62.8783 438.411 62.5038C437.761 61.5307 437.459 60.3666 437.554 59.2003C437.581 59.02 437.625 58.8426 437.685 58.6705C437.707 58.6039 437.732 58.5374 437.759 58.4736C438.009 58.4058 438.238 58.2782 438.427 58.1017C438.616 57.9253 438.759 57.7054 438.844 57.4611C438.939 56.9363 438.894 56.3957 438.714 55.8939C438.506 55.1928 438.223 54.5165 437.868 53.8774C437.635 53.4558 436.844 52.6958 436.839 52.2131C436.828 51.2423 438.725 50.4601 439.493 50.0773C441.838 48.9029 444.453 48.3726 447.07 48.5407C448.748 48.6544 450.568 49.1703 451.494 50.5766C452.326 51.8442 452.215 53.4863 452.57 54.9592C452.608 55.1732 452.698 55.3745 452.834 55.5444C453.015 55.7094 453.242 55.814 453.485 55.844C453.896 55.9257 454.317 55.9426 454.734 55.8939H454.736C454.846 55.8852 454.956 55.8694 455.064 55.8467C455.711 55.7272 456.324 55.4626 456.855 55.0729C457.199 54.9813 457.546 54.9064 457.895 54.8482C457.909 54.8468 457.923 54.844 457.937 54.8399C459.327 59.2252 459.507 63.9267 460.644 68.3924C461.207 70.6142 462.014 72.8083 462.128 75.0938C462.136 75.1937 462.139 75.2963 462.142 75.3989C462.158 76.134 462.1 76.8746 462.131 77.6068C462.141 77.9366 462.178 78.2649 462.241 78.5887C462.366 79.1095 462.521 79.6226 462.705 80.1254L462.713 80.1504C462.766 80.3113 462.816 80.4749 462.857 80.6386C462.888 80.7578 462.915 80.8743 462.938 80.9936L462.94 81.0019C463.146 82.2276 463.177 83.4762 463.032 84.7105Z" fill="#FBBEBE"/>
<path d="M443.567 56.0299C452.605 56.0299 459.931 48.7029 459.931 39.6647C459.931 30.6265 452.605 23.2996 443.567 23.2996C434.53 23.2996 427.203 30.6265 427.203 39.6647C427.203 48.7029 434.53 56.0299 443.567 56.0299Z" fill="#FBBEBE"/>
<path d="M547.458 128.83C546.984 124.365 545.397 120.09 542.843 116.398C543.267 118.922 543.693 121.445 544.119 123.967C543.589 124.121 543.026 124.116 542.499 123.954C541.972 123.792 541.503 123.479 541.151 123.055C540.462 122.194 539.935 121.216 539.595 120.167C537.736 115.552 535.305 111.188 532.359 107.178C521.942 106.31 511.643 101.991 502.482 96.9566C493.319 91.925 484.743 85.8921 475.701 80.6469C474.134 79.6993 472.501 78.865 470.814 78.1505C467.985 77.016 464.81 76.428 462.128 75.0938C461.947 75.005 461.767 74.9107 461.59 74.8136C460.984 74.4841 460.41 74.0987 459.876 73.6625C459.587 73.428 459.313 73.1761 459.055 72.9081C457.716 71.3512 456.655 69.5761 455.918 67.6601C454.478 64.4759 453.965 60.6342 452.529 57.4499C453.189 56.8328 453.931 56.3092 454.733 55.8939H454.736C454.853 55.8328 454.969 55.7746 455.088 55.7191C455.657 55.4514 456.248 55.2351 456.855 55.0728C457.199 54.9813 457.546 54.9064 457.895 54.8482C457.909 54.8467 457.923 54.8439 457.937 54.8398C459.557 54.5758 461.218 54.7071 462.777 55.2226C465.057 55.9937 466.979 57.5332 468.895 58.9894C472.009 61.1831 474.995 63.552 477.84 66.0846C479.421 67.5991 480.863 69.2633 482.563 70.6391C483.976 71.7296 485.465 72.7169 487.02 73.5932C496.22 79.0741 505.421 84.5541 514.622 90.0332C517.737 91.8889 520.854 93.7445 523.9 95.7083C528.526 98.6929 532.986 101.927 537.443 105.159C540.069 107.061 542.695 108.965 545.32 110.87C546.181 111.419 546.937 112.118 547.552 112.933C548.096 113.859 548.434 114.891 548.543 115.96C549.201 120.275 548.83 124.685 547.458 128.83Z" fill="#FBBEBE"/>
<path d="M467.09 97.0176C465.986 101.969 460.982 104.962 458.367 109.311C455.116 114.709 456.442 120.983 457.662 127.166C455.432 129.088 453.202 131.01 450.97 132.932C449.738 133.989 448.507 135.051 447.181 135.986C445.248 137.281 443.228 138.442 441.135 139.459C439.16 140.474 437.185 141.49 435.211 142.507C433.375 143.54 431.43 144.364 429.411 144.965C425.52 145.963 421.387 145.264 417.538 144.108C417.084 143.989 416.647 143.81 416.24 143.578C416 143.435 415.79 143.245 415.624 143.02C415.245 142.34 415.107 141.551 415.233 140.782C415.624 134.302 417.208 127.959 418.786 121.662C419.629 117.885 420.763 114.178 422.178 110.576C423.565 107.489 425.16 104.499 426.951 101.628C428.928 98.0146 431.27 94.6138 433.94 91.4784C435.241 90.2717 436.335 88.8607 437.18 87.3012C438.165 85.0544 437.785 82.4776 437.984 80.0311C438.137 78.1931 438.625 76.3985 439.424 74.7361V74.7333C439.851 73.8378 440.366 72.9868 440.96 72.1925C441.229 72.8194 441.498 73.4453 441.767 74.0703C441.945 74.4809 442.12 74.8905 442.294 75.2992C442.522 75.8262 442.747 76.3513 442.971 76.8747C443.617 78.378 444.263 79.8805 444.907 81.382C445.603 83.2732 446.596 85.0418 447.847 86.6217C448.419 87.4306 449.191 88.0774 450.087 88.4989C450.984 88.9204 451.974 89.1021 452.962 89.0264C453.95 88.9507 454.901 88.6201 455.723 88.0668C456.545 87.5136 457.209 86.7567 457.651 85.8699C458.584 84.2148 459.259 82.4275 459.654 80.5693C460.202 78.3068 460.277 75.9557 459.876 73.6627C459.207 69.2468 457.33 64.7367 455.965 60.6343C455.41 59.2665 455.088 57.815 455.014 56.3405C455.016 56.1749 455.033 56.0097 455.064 55.8468C455.072 55.8052 455.08 55.7608 455.089 55.7192C455.657 55.4515 456.248 55.2352 456.855 55.0729C457.199 54.9814 457.546 54.9065 457.895 54.8483C459.096 61.35 460.299 67.8516 461.504 74.3533C461.532 74.5059 461.562 74.6584 461.59 74.8138C461.762 75.7457 461.936 76.6777 462.131 77.6069C462.305 78.4501 462.494 79.2906 462.705 80.1255L462.713 80.1505C462.785 80.4334 462.86 80.7135 462.938 80.9937L462.94 81.002C463.154 81.7676 463.393 82.5276 463.662 83.2765C465.292 87.7894 468.135 92.3328 467.09 97.0176Z" fill="#FCCC55"/>
<path d="M533.5 166.597C533.449 167.551 533.633 168.503 534.038 169.368C535.062 171.24 537.519 171.665 539.646 171.84C552.067 172.861 564.564 172.481 576.9 170.705C577.569 170.659 578.219 170.458 578.796 170.117C580.55 168.887 579.469 165.89 577.554 164.93C575.639 163.971 573.366 164.202 571.265 163.787C569.177 163.261 567.189 162.399 565.378 161.234C561.117 158.785 556.917 156.232 552.78 153.575C550.317 151.993 547.41 150.305 544.636 151.243C537.122 153.785 533.451 158.49 533.5 166.597Z" fill="#3F3D56"/>
<path d="M441.934 73.1551V73.1578C441.914 73.2743 441.895 73.3881 441.87 73.5018C441.839 73.6904 441.803 73.8818 441.767 74.0704C441.423 75.8317 441.002 77.5847 440.516 79.3266C439.185 84.1391 437.402 88.8739 435.632 93.5394C430.884 106.049 426.135 118.56 421.385 131.071C420.187 134.222 418.991 137.376 417.629 140.463C417.174 141.492 416.706 142.529 416.24 143.578C414.57 147.331 412.967 151.206 412.435 155.2C411.938 157.829 411.881 160.521 412.265 163.169C412.798 165.787 414.387 168.345 416.875 169.313C418.09 169.787 419.829 170.422 419.496 171.684C419.316 172.378 418.528 172.716 417.821 172.833C416.887 172.981 415.931 172.923 415.023 172.661C414.114 172.4 413.274 171.941 412.562 171.318C411.234 170.139 410.213 168.306 408.446 168.109C407.223 167.976 406.097 168.708 404.976 169.221C400.406 171.31 395.081 169.848 390.28 168.364C390.657 166.42 392.609 165.138 394.548 164.75C396.487 164.359 398.492 164.636 400.469 164.584C401.103 164.617 401.731 164.456 402.269 164.12C402.752 163.677 403.09 163.099 403.24 162.462C404.514 158.687 405.461 154.81 406.072 150.873C406.71 146.759 406.976 142.582 407.886 138.519C408.593 135.348 409.686 132.278 410.623 129.165C412.436 122.758 413.925 116.263 415.083 109.705C415.669 106.98 416.088 104.223 416.34 101.447C416.498 99.1451 416.423 96.8318 416.645 94.5379C417.017 91.5535 417.64 88.6058 418.506 85.7257C419.354 82.583 420.202 79.4422 421.049 76.3032C422.305 71.6572 423.653 66.8309 426.837 63.2195C427.943 61.9481 429.298 60.9173 430.819 60.1912C432.339 59.465 433.993 59.0588 435.677 58.9978C436.308 58.997 436.938 59.0649 437.554 59.2003C437.657 59.2252 437.76 59.2502 437.862 59.2779C438.534 59.4537 439.179 59.7206 439.779 60.0713C440.761 59.4471 441.26 59.6663 441.912 60.6288C442.483 61.6474 442.752 62.8077 442.688 63.9739C442.743 67.0518 442.49 70.1275 441.934 73.1551Z" fill="#FBBEBE"/>
<path d="M443.013 76.833L442.971 76.8746L442.746 77.0993L440.516 79.3266L439.424 74.736L435.677 58.9977C436.308 58.9969 436.938 59.0648 437.554 59.2002C437.581 59.0199 437.625 58.8425 437.685 58.6704L437.862 59.2779L439.132 63.5994L441.537 71.8041L441.934 73.155V73.1577L443.013 76.833Z" fill="#FCCC55"/>
<path d="M457.163 26.6237C457.161 28.081 456.872 29.5237 456.312 30.8692C455.753 32.2147 454.933 33.4367 453.901 34.4654C453.527 34.8398 453.127 35.1864 452.702 35.5024C450.788 36.9453 448.457 37.7263 446.06 37.7274H432.754C429.814 37.7229 426.996 36.5516 424.918 34.4707C422.841 32.3899 421.674 29.5696 421.674 26.6291C421.674 23.6887 422.841 20.8684 424.918 18.7875C426.996 16.7067 429.814 15.5354 432.754 15.5309H446.06C449.001 15.5385 451.819 16.7094 453.899 18.7877C455.979 20.8661 457.152 23.6831 457.163 26.6237Z" fill="#2F2E41"/>
<path d="M469.638 27.4601C475.919 27.4601 481.01 22.3685 481.01 16.0877C481.01 9.80693 475.919 4.71533 469.638 4.71533C463.358 4.71533 458.267 9.80693 458.267 16.0877C458.267 22.3685 463.358 27.4601 469.638 27.4601Z" fill="#2F2E41"/>
<path opacity="0.1" d="M469.361 4.71533C469.222 4.71533 469.083 4.72087 468.945 4.72585C471.887 4.8328 474.672 6.07667 476.715 8.19575C478.759 10.3148 479.9 13.1439 479.9 16.0877C479.9 19.0316 478.759 21.8606 476.715 23.9797C474.672 26.0988 471.887 27.3427 468.945 27.4496C469.083 27.4546 469.222 27.4601 469.361 27.4601C472.377 27.4601 475.269 26.262 477.402 24.1292C479.534 21.9965 480.733 19.1039 480.733 16.0877C480.733 13.0716 479.534 10.179 477.402 8.04623C475.269 5.9135 472.377 4.71533 469.361 4.71533Z" fill="black"/>
<path opacity="0.1" d="M415.277 4.71533C415.417 4.71533 415.555 4.72087 415.693 4.72585C412.752 4.8328 409.966 6.07667 407.923 8.19575C405.88 10.3148 404.738 13.1439 404.738 16.0877C404.738 19.0316 405.88 21.8606 407.923 23.9797C409.966 26.0988 412.752 27.3427 415.693 27.4496C415.555 27.4546 415.417 27.4601 415.277 27.4601C412.263 27.4575 409.373 26.2581 407.243 24.1257C405.112 21.9932 403.916 19.1021 403.916 16.0877C403.916 13.0733 405.112 10.1822 407.243 8.04977C409.373 5.91732 412.263 4.71799 415.277 4.71533Z" fill="black"/>
<path opacity="0.1" d="M452.702 35.5024C450.789 36.9454 448.457 37.7264 446.06 37.7275H432.754C430.357 37.7264 428.026 36.9454 426.112 35.5024H452.702Z" fill="black"/>
<path d="M538.628 117.906C538.628 117.906 541.495 126.167 544.119 123.967L542.028 113.169L538.628 117.906Z" fill="#FBBEBE"/>
<path d="M887.479 369.833C890.149 370.804 893.008 371.141 895.83 370.818C898.653 370.496 901.362 369.522 903.744 367.973C906.126 366.425 908.116 364.344 909.557 361.895C910.998 359.446 911.85 356.696 912.047 353.862C912.244 351.027 911.78 348.186 910.691 345.562C909.603 342.937 907.919 340.601 905.774 338.738C903.629 336.876 901.08 335.536 898.329 334.827C895.579 334.117 892.7 334.056 889.922 334.648L890.381 344.091L885.914 335.998C881.529 338.058 878.142 341.775 876.497 346.332C875.912 347.928 875.557 349.599 875.441 351.294C875.159 355.273 876.182 359.235 878.354 362.581C880.526 365.926 883.73 368.472 887.479 369.833Z" fill="#57B894"/>
<path d="M909.583 479.354C908.006 471.323 914.839 464.204 921.588 459.576C928.338 454.949 936.225 450.402 938.528 442.548C941.837 431.262 931.979 420.925 924.305 412.012C918.612 405.397 913.723 398.13 909.741 390.364C908.144 387.25 906.677 383.995 906.257 380.521C905.652 375.518 907.259 370.54 908.878 365.768C914.272 349.87 920.039 334.106 926.18 318.475" stroke="#3F3D56" stroke-miterlimit="10"/>
<path d="M888.234 367.402C890.904 368.373 893.763 368.71 896.586 368.387C899.409 368.065 902.118 367.091 904.5 365.542C906.882 363.994 908.872 361.913 910.312 359.464C911.753 357.015 912.606 354.265 912.803 351.431C912.999 348.596 912.535 345.755 911.447 343.13C910.358 340.506 908.675 338.17 906.53 336.307C904.384 334.444 901.836 333.105 899.085 332.395C896.334 331.686 893.456 331.625 890.677 332.217L891.136 341.66L886.669 333.567C882.285 335.627 878.898 339.344 877.252 343.901C876.668 345.497 876.313 347.168 876.197 348.863C875.915 352.842 876.938 356.804 879.11 360.15C881.282 363.495 884.485 366.041 888.234 367.402V367.402Z" stroke="#3F3D56" stroke-miterlimit="10"/>
<path d="M907.341 315.214C908.388 312.323 910.147 309.742 912.455 307.708C914.762 305.675 917.544 304.256 920.544 303.58L922.055 312.557L924.855 303.129C928.743 303.187 932.512 304.479 935.618 306.818C938.724 309.158 941.007 312.424 942.135 316.146C943.264 319.867 943.182 323.851 941.899 327.522C940.616 331.193 938.2 334.362 935 336.57C931.799 338.779 927.979 339.913 924.092 339.809C920.205 339.705 916.452 338.368 913.374 335.991C910.296 333.615 908.053 330.322 906.968 326.587C905.884 322.852 906.014 318.87 907.34 315.214H907.341Z" fill="#57B894"/>
<path d="M908.348 311.973C909.396 309.081 911.154 306.5 913.462 304.467C915.769 302.434 918.551 301.014 921.552 300.339L923.062 309.316L925.862 299.888C929.75 299.945 933.52 301.237 936.626 303.577C939.732 305.916 942.014 309.183 943.143 312.904C944.272 316.625 944.189 320.609 942.906 324.281C941.624 327.952 939.208 331.12 936.007 333.329C932.806 335.537 928.987 336.671 925.099 336.567C921.212 336.463 917.459 335.126 914.381 332.75C911.303 330.373 909.06 327.08 907.976 323.345C906.891 319.611 907.021 315.628 908.348 311.973H908.348Z" stroke="#3F3D56" stroke-miterlimit="10"/>
<path d="M921.085 412.194C925.32 413.73 929.971 413.654 934.153 411.98C938.336 410.307 941.756 407.153 943.762 403.12C945.769 399.087 946.221 394.456 945.033 390.111C943.845 385.765 941.099 382.009 937.32 379.558L935.168 386.803L933.642 377.72C933.627 377.713 933.612 377.707 933.596 377.703C931.331 376.88 928.926 376.511 926.519 376.617C924.111 376.724 921.748 377.304 919.565 378.324C917.382 379.344 915.421 380.785 913.794 382.563C912.168 384.342 910.908 386.423 910.086 388.688C909.264 390.954 908.897 393.359 909.005 395.767C909.113 398.175 909.694 400.537 910.716 402.72C911.737 404.903 913.179 406.863 914.958 408.489C916.737 410.114 918.819 411.373 921.085 412.194H921.085Z" fill="#57B894"/>
<path d="M921.958 408.91C926.192 410.446 930.844 410.37 935.026 408.697C939.208 407.024 942.629 403.87 944.635 399.837C946.641 395.803 947.094 391.173 945.906 386.827C944.718 382.482 941.972 378.726 938.193 376.275L936.041 383.52L934.515 374.437C934.5 374.43 934.485 374.424 934.469 374.419C932.204 373.596 929.799 373.227 927.391 373.334C924.984 373.441 922.621 374.021 920.438 375.041C918.254 376.061 916.294 377.501 914.667 379.28C913.041 381.058 911.781 383.14 910.959 385.405C910.137 387.671 909.77 390.076 909.878 392.484C909.986 394.891 910.567 397.254 911.589 399.437C912.61 401.62 914.052 403.58 915.831 405.205C917.61 406.831 919.692 408.09 921.958 408.91H921.958Z" stroke="#3F3D56" stroke-miterlimit="10"/>
<path d="M901.987 442.66C902.715 446.804 904.846 450.571 908.021 453.329C911.197 456.088 915.224 457.671 919.428 457.813C923.632 457.954 927.757 456.646 931.111 454.107C934.465 451.568 936.844 447.953 937.849 443.868C938.854 439.783 938.424 435.477 936.631 431.672C934.839 427.866 931.792 424.793 928.002 422.967C924.213 421.141 919.911 420.674 915.818 421.644C911.725 422.614 908.09 424.962 905.522 428.294L913.695 440.597L902.528 434.067C901.662 436.847 901.476 439.794 901.987 442.66Z" fill="#57B894"/>
<path d="M902.743 440.229C903.471 444.373 905.601 448.14 908.777 450.898C911.952 453.657 915.98 455.24 920.184 455.382C924.388 455.523 928.512 454.215 931.866 451.676C935.22 449.137 937.599 445.522 938.604 441.437C939.61 437.352 939.18 433.046 937.387 429.241C935.594 425.435 932.547 422.362 928.758 420.536C924.968 418.71 920.666 418.243 916.573 419.213C912.48 420.183 908.845 422.531 906.278 425.863L914.451 438.166L903.283 431.636C902.417 434.416 902.232 437.363 902.743 440.229V440.229Z" stroke="#3F3D56" stroke-miterlimit="10"/>
<path d="M7.9394 414.525C9.6937 415.162 11.5722 415.384 13.4267 415.172C15.2813 414.96 17.0612 414.32 18.6263 413.303C20.1913 412.285 21.4987 410.918 22.4453 409.309C23.392 407.7 23.952 405.893 24.0813 404.031C24.2106 402.169 23.9057 400.302 23.1905 398.578C22.4752 396.853 21.3693 395.319 19.9599 394.095C18.5505 392.871 16.876 391.991 15.0686 391.525C13.2611 391.058 11.3701 391.018 9.54448 391.407L9.84616 397.611L6.91112 392.294C4.03054 393.648 1.80518 396.09 0.724053 399.084C0.340101 400.132 0.106687 401.23 0.0307734 402.344C-0.154488 404.958 0.517345 407.562 1.94446 409.76C3.37158 411.958 5.47619 413.63 7.9394 414.525Z" fill="#57B894"/>
<path d="M22.4621 486.482C21.426 481.205 25.9155 476.528 30.3501 473.487C34.7847 470.447 39.9663 467.459 41.4794 462.3C43.654 454.884 37.1766 448.093 32.135 442.236C28.3947 437.89 25.1826 433.116 22.566 428.014C21.4284 426.01 20.6536 423.82 20.2772 421.547C19.8797 418.26 20.9356 414.989 21.9994 411.853C25.5433 401.409 29.3324 391.051 33.3665 380.781" stroke="#3F3D56" stroke-miterlimit="10"/>
<path d="M8.43587 412.927C10.1902 413.565 12.0686 413.787 13.9232 413.575C15.7777 413.363 17.5577 412.723 19.1227 411.705C20.6878 410.688 21.9951 409.321 22.9418 407.712C23.8884 406.103 24.4485 404.296 24.5778 402.434C24.7071 400.572 24.4021 398.705 23.6869 396.98C22.9717 395.256 21.8658 393.721 20.4563 392.497C19.0469 391.273 17.3725 390.394 15.565 389.927C13.7576 389.461 11.8666 389.421 10.0409 389.81L10.3426 396.014L7.40758 390.697C4.527 392.051 2.30164 394.493 1.22051 397.486C0.836566 398.535 0.603154 399.633 0.527237 400.747C0.341963 403.361 1.01379 405.964 2.44091 408.162C3.86803 410.36 5.97265 412.033 8.43587 412.927V412.927Z" stroke="#3F3D56" stroke-miterlimit="10"/>
<path d="M20.989 378.639C21.6774 376.739 22.8329 375.043 24.349 373.707C25.865 372.372 27.6929 371.439 29.6641 370.995L30.6564 376.893L32.4963 370.699C35.0508 370.737 37.5273 371.586 39.568 373.123C41.6087 374.66 43.1082 376.806 43.8499 379.251C44.5916 381.696 44.5372 384.313 43.6945 386.725C42.8517 389.137 41.2643 391.219 39.1615 392.67C37.0586 394.121 34.549 394.866 31.9951 394.798C29.4412 394.729 26.9751 393.851 24.9528 392.29C22.9306 390.728 21.4568 388.565 20.7444 386.111C20.0319 383.657 20.1175 381.041 20.989 378.639Z" fill="#57B894"/>
<path d="M21.6508 376.509C22.3393 374.609 23.4948 372.913 25.0108 371.578C26.5269 370.242 28.3547 369.309 30.3259 368.866L31.3183 374.764L33.1582 368.569C35.7127 368.607 38.1891 369.456 40.2299 370.993C42.2706 372.53 43.7701 374.676 44.5118 377.121C45.2535 379.566 45.199 382.184 44.3563 384.596C43.5136 387.008 41.9262 389.089 39.8233 390.54C37.7204 391.991 35.2109 392.736 32.657 392.668C30.1031 392.6 27.637 391.721 25.6147 390.16C23.5925 388.599 22.1187 386.435 21.4062 383.981C20.6937 381.528 20.7794 378.911 21.6508 376.509V376.509Z" stroke="#3F3D56" stroke-miterlimit="10"/>
<path d="M30.0193 442.356C32.8014 443.365 35.8576 443.315 38.6054 442.216C41.3532 441.117 43.6004 439.044 44.9186 436.394C46.2369 433.744 46.534 430.702 45.7534 427.847C44.9728 424.992 43.1691 422.524 40.686 420.914L39.2722 425.674L38.2698 419.707C38.2599 419.702 38.2496 419.698 38.2391 419.695C36.751 419.154 35.1708 418.911 33.5888 418.981C32.0069 419.051 30.4542 419.432 29.0195 420.102C27.5849 420.772 26.2963 421.719 25.2276 422.887C24.1588 424.056 23.3308 425.423 22.7908 426.912C22.2508 428.401 22.0094 429.981 22.0805 431.563C22.1516 433.145 22.5337 434.698 23.205 436.132C23.8763 437.566 24.8236 438.854 25.9928 439.922C27.1621 440.99 28.5303 441.817 30.0193 442.356Z" fill="#57B894"/>
<path d="M30.5927 440.199C33.3749 441.208 36.4311 441.158 39.1789 440.059C41.9267 438.959 44.1738 436.887 45.4921 434.237C46.8104 431.587 47.1075 428.545 46.3269 425.69C45.5463 422.835 43.7426 420.367 41.2595 418.757L39.8457 423.517L38.8433 417.549C38.8334 417.545 38.8231 417.541 38.8126 417.538C37.3248 416.998 35.7452 416.756 34.1641 416.827C32.583 416.898 31.0313 417.279 29.5976 417.95C26.7021 419.304 24.4631 421.753 23.3731 424.758C22.283 427.763 22.4313 431.078 23.7853 433.974C25.1392 436.869 27.588 439.109 30.5927 440.199V440.199Z" stroke="#3F3D56" stroke-miterlimit="10"/>
<path d="M17.4717 462.373C17.95 465.095 19.3498 467.57 21.4361 469.383C23.5225 471.195 26.1686 472.235 28.9307 472.328C31.6928 472.422 34.4029 471.562 36.6065 469.894C38.8101 468.226 40.3731 465.851 41.0335 463.167C41.6939 460.483 41.4115 457.654 40.2336 455.153C39.0557 452.653 37.054 450.634 34.5642 449.434C32.0744 448.235 29.2478 447.928 26.5586 448.565C23.8694 449.203 21.4811 450.745 19.7942 452.935L25.1642 461.018L17.8268 456.727C17.2579 458.554 17.1361 460.49 17.4717 462.373Z" fill="#57B894"/>
<path d="M17.968 460.776C18.4464 463.498 19.8461 465.973 21.9325 467.786C24.0189 469.598 26.665 470.638 29.4271 470.731C32.1892 470.824 34.8993 469.965 37.1029 468.297C39.3064 466.629 40.8695 464.253 41.5299 461.57C42.1903 458.886 41.9078 456.056 40.73 453.556C39.5521 451.056 37.5504 449.037 35.0605 447.837C32.5707 446.638 29.7442 446.331 27.055 446.968C24.3658 447.605 21.9775 449.148 20.2906 451.337L25.6605 459.42L18.3231 455.13C17.7542 456.956 17.6324 458.893 17.968 460.776V460.776Z" stroke="#3F3D56" stroke-miterlimit="10"/>
<path d="M423.92 300.694C432.195 300.694 438.904 292.011 438.904 281.3C438.904 270.59 432.195 261.907 423.92 261.907C415.644 261.907 408.935 270.59 408.935 281.3C408.935 292.011 415.644 300.694 423.92 300.694Z" fill="#2F2E41"/>
<path d="M505.452 301.134C513.727 301.134 520.436 292.452 520.436 281.741C520.436 271.031 513.727 262.348 505.452 262.348C497.176 262.348 490.468 271.031 490.468 281.741C490.468 292.452 497.176 301.134 505.452 301.134Z" fill="#2F2E41"/>
<path d="M493.993 339.039C493.993 347.801 481.759 354.906 466.669 354.906C451.579 354.906 439.345 347.801 439.345 339.039C439.345 331.449 448.52 325.102 460.781 323.551C462.733 323.293 464.7 323.167 466.669 323.172C469.968 323.161 473.258 323.516 476.479 324.23C486.722 326.513 493.993 332.287 493.993 339.039Z" fill="#2F2E41"/>
<path d="M427.445 296.286C435.721 296.286 442.43 287.603 442.43 276.893C442.43 266.183 435.721 257.5 427.445 257.5C419.17 257.5 412.461 266.183 412.461 276.893C412.461 287.603 419.17 296.286 427.445 296.286Z" stroke="#3F3D56" stroke-miterlimit="10"/>
<path d="M508.977 296.727C517.253 296.727 523.962 288.044 523.962 277.334C523.962 266.623 517.253 257.941 508.977 257.941C500.702 257.941 493.993 266.623 493.993 277.334C493.993 288.044 500.702 296.727 508.977 296.727Z" stroke="#3F3D56" stroke-miterlimit="10"/>
<path d="M470.195 350.498C485.285 350.498 497.519 343.394 497.519 334.631C497.519 325.868 485.285 318.764 470.195 318.764C455.104 318.764 442.87 325.868 442.87 334.631C442.87 343.394 455.104 350.498 470.195 350.498Z" stroke="#3F3D56" stroke-miterlimit="10"/>
<path d="M476.805 325.552C476.812 326.66 476.396 327.73 475.642 328.542C475.285 328.931 474.853 329.242 474.37 329.456C473.888 329.669 473.366 329.781 472.839 329.783H464.025C462.939 329.745 461.912 329.279 461.168 328.486C460.425 327.693 460.026 326.638 460.058 325.552C460.054 324.692 460.305 323.851 460.781 323.135C462.732 322.861 464.699 322.726 466.669 322.731C469.972 322.72 473.265 323.099 476.479 323.859C476.697 324.397 476.808 324.972 476.805 325.552Z" fill="white"/>
<path d="M427.445 276.012C429.879 276.012 431.852 274.038 431.852 271.604C431.852 269.17 429.879 267.197 427.445 267.197C425.011 267.197 423.038 269.17 423.038 271.604C423.038 274.038 425.011 276.012 427.445 276.012Z" fill="white"/>
<path d="M509.418 276.012C511.852 276.012 513.825 274.038 513.825 271.604C513.825 269.17 511.852 267.197 509.418 267.197C506.984 267.197 505.011 269.17 505.011 271.604C505.011 274.038 506.984 276.012 509.418 276.012Z" fill="white"/>
<path opacity="0.3" d="M513.825 317.442C516.259 317.442 518.233 315.469 518.233 313.035C518.233 310.6 516.259 308.627 513.825 308.627C511.391 308.627 509.418 310.6 509.418 313.035C509.418 315.469 511.391 317.442 513.825 317.442Z" fill="#FCCC55"/>
<path opacity="0.3" d="M406.291 317.442C408.725 317.442 410.698 315.469 410.698 313.035C410.698 310.6 408.725 308.627 406.291 308.627C403.857 308.627 401.884 310.6 401.884 313.035C401.884 315.469 403.857 317.442 406.291 317.442Z" fill="#FCCC55"/>
</g>
<defs>
<clipPath id="clip0">
<rect width="947" height="515" fill="white"/>
</clipPath>
</defs>
</svg>
